<?xml version="1.0" encoding="utf-8"?>
<!-- Generator: Adobe Illustrator 27.8.1, SVG Export Plug-In . SVG Version: 6.00 Build 0)  -->
<svg version="1.1" xmlns="http://www.w3.org/2000/svg" xmlns:xlink="http://www.w3.org/1999/xlink" x="0px" y="0px"
	 viewBox="0 0 500 500" style="enable-background: new 0 0 500 500" xml:space="preserve">
<style type="text/css">
	.st0{opacity:0.04;fill:url(#SVGID_1_);}
	.st1{opacity:0.08;}
	.st2{opacity:0.25;}
	.st3{opacity:0.25;fill:#FFFFFF;}
	.st4{fill:url(#SVGID_00000098938083302598434290000004652901731902520973_);}
	.st5{fill:url(#SVGID_00000036221606676222224190000017502159018972464032_);}
	.st6{fill:#002A66;}
	.st7{fill:#EEF8FF;}
	.st8{fill:#FFFFFF;}
	.st9{fill:url(#SVGID_00000144299895285668647020000000246515900118926210_);}
	.st10{fill:url(#SVGID_00000008827310204887980220000007064128744620636548_);}
	.st11{opacity:0.86;fill:#B3B3FF;}
	.st12{fill:url(#SVGID_00000147898876491997070130000008408627738767753902_);}
	.st13{fill:url(#SVGID_00000111912602529079314800000000605327007278496655_);}
	.st14{fill:url(#SVGID_00000064345075465263407530000000259730416264848553_);}
	.st15{fill:url(#SVGID_00000074418555970533479650000016836330102057247665_);}
	.st16{fill:url(#SVGID_00000141457510723744589320000000185586935616603835_);}
	.st17{fill:#010D19;}
	.st18{fill:url(#SVGID_00000034078183100284603620000004300279301931778217_);}
	.st19{fill:url(#SVGID_00000106830601162174604190000017981262175019013533_);}
	.st20{fill:url(#SVGID_00000136398434623785442090000015917594859967490473_);}
	.st21{fill:url(#SVGID_00000165231482235617432560000009015540964256639404_);}
	.st22{opacity:0.35;}
	.st23{fill:url(#SVGID_00000039127169497749597150000009556870795987246783_);}
	.st24{fill:#FFB7A9;}
	.st25{fill:url(#SVGID_00000023992875482449653490000012984701999175273401_);}
	.st26{fill:#0049B2;}
	.st27{fill:url(#SVGID_00000089554713953960122980000004074503602793293956_);}
	.st28{fill:url(#SVGID_00000119097782355614564130000003343033088877380779_);}
	.st29{fill:#A2A5AA;}
	.st30{fill:url(#SVGID_00000067203145089777858980000013898239526053293956_);}
	
		.st31{opacity:0.25;fill:none;stroke:#FFFFFF;stroke-width:1.1792;stroke-linecap:round;stroke-linejoin:round;stroke-miterlimit:10;}
	.st32{fill:url(#SVGID_00000029011113452853720150000007532918380295341722_);}
	.st33{fill:url(#SVGID_00000011722447213786377350000005853642120373724587_);}
	.st34{fill:url(#SVGID_00000181785654967610358660000004355088768861981073_);}
	.st35{fill:url(#SVGID_00000087382805795560624960000006593341306994269099_);}
	.st36{fill:#9CACF2;}
	.st37{fill:#C7CFFF;}
	.st38{fill:#7189E2;}
	.st39{fill:url(#SVGID_00000060737085762529884800000010325276690812887995_);}
	.st40{fill:url(#SVGID_00000094585067595043208350000000339350368140082084_);}
	.st41{fill:url(#SVGID_00000016786188422179626720000000067983777584176797_);}
	.st42{fill:url(#SVGID_00000101093394298447545110000011479280835530026389_);}
	.st43{fill:#B3CEE8;}
	.st44{opacity:0.28;}
	
		.st45{fill:none;stroke:url(#SVGID_00000146489639259317824180000008227567938841864871_);stroke-width:2.9479;stroke-linecap:round;stroke-linejoin:round;stroke-miterlimit:10;}
	.st46{fill:none;stroke:#FFFFFF;stroke-width:2.9479;stroke-linecap:round;stroke-linejoin:round;stroke-miterlimit:10;}
	.st47{fill:url(#SVGID_00000005987345353871806630000011124067833913442693_);}
	
		.st48{fill:none;stroke:url(#SVGID_00000147190727263807270940000003769150857624162449_);stroke-width:2.9479;stroke-linecap:round;stroke-linejoin:round;stroke-miterlimit:10;}
	
		.st49{fill:none;stroke:url(#SVGID_00000083046708882608905370000018222434908100456370_);stroke-width:2.9479;stroke-linecap:round;stroke-linejoin:round;stroke-miterlimit:10;}
	.st50{fill:url(#SVGID_00000179636358508893542160000016340473378874736528_);}
	.st51{fill:url(#SVGID_00000087393573801995760960000018237159751255049349_);}
	.st52{fill:none;stroke:#66D7FF;stroke-width:1.1792;stroke-linecap:round;stroke-linejoin:round;stroke-miterlimit:10;}
	.st53{fill:none;stroke:#0098FF;stroke-width:1.1792;stroke-linecap:round;stroke-linejoin:round;stroke-miterlimit:10;}
	.st54{fill:url(#SVGID_00000029759470683569149940000015137560501625395610_);}
	.st55{fill:url(#SVGID_00000006682404061623690270000006102106389054886784_);}
	.st56{fill:url(#SVGID_00000119115618609173839160000017303590755937516425_);}
	.st57{fill:url(#SVGID_00000052795965982300590910000007840855536235386530_);}
</style>
<g id="BACKGROUND">
</g>
<g id="OBJECTS">
	<g>
		<g>
			<linearGradient id="SVGID_1_" gradientUnits="userSpaceOnUse" x1="261.2611" y1="102.5818" x2="252.1645" y2="405.0378">
				<stop  offset="0" style="stop-color: #606060"/>
				<stop  offset="1" style="stop-color: #0B2935"/>
			</linearGradient>
			<path class="st0" d="M 506.6 351.6 c -1.6 16.7 -5.7 33 -11.7 48.6 c -4.5 11.6 -10 22.8 -16.4 33.3 c -1.5 2.4 -3 4.8 -4.5 7.1 c -2.4 3.6 -4.9 7.2 -7.6 10.7 c -6.6 8.7 -13.8 16.8 -21.4 24 c -6.8 6.5 -14 12.4 -21.4 17.4 c -4.2 2.9 -2.2 9.4 2.9 9.4 h 2.3 c 0.3 0 0.6 0 0.9 0.1 c 4.5 0.5 7.9 4.4 7.7 9 c -0.2 4.6 -4.2 8.2 -8.9 8.2 H 182.7 c -4.9 0 -8.9 -4.1 -8.7 -9.1 c 0.1 -2.3 1.2 -4.4 2.8 -5.9 c 1.6 -1.5 3.8 -2.4 6.1 -2.4 c 4.9 0 7.1 -6.2 3.2 -9.3 c -16.4 -12.7 -43.9 -38.7 -59.4 -79.8 c -7.6 -20.2 -12.3 -44.1 -11.4 -71.9 C 119.1 229.2 225.8 167.8 350.2 189 S 514 276.6 506.6 351.6 z"/>
			<path class="st1" d="M 443.4 476.2 c -5.5 10.3 -10.8 19.6 -15.2 26.9 c -6.4 10.6 -10.8 17.3 -10.8 17.3 H 181.1 c -4.9 0 -8.9 -4.1 -8.7 -9.1 c 0.1 -2.3 1.2 -4.4 2.8 -5.9 c 1.6 -1.5 3.8 -2.4 6.1 -2.4 c 4.9 0 7.1 -6.2 3.2 -9.3 c -2.3 -1.8 -4.9 -3.9 -7.6 -6.2 c -5.2 -4.5 -10.9 -9.9 -16.8 -16.4 c -4.2 -4.6 -8.4 -9.8 -12.5 -15.5 H 147.6 c -8.4 -11.6 -16.4 -25.5 -22.5 -41.8 c 18.6 18.7 45.9 38.1 80.3 40.4 c 68.2 4.5 196.1 -122.2 251.8 -100.1 C 492.8 368.5 466.9 432 443.4 476.2 z"/>
			<g>
				<g>
					
						<rect x="64.1" y="291.9" transform="matrix(-1,-1.2,1.2,-1,298.9,625.4)" class="st2" width="21.6" height="8.1"/>
					
						<rect x="39.9" y="291.9" transform="matrix(-1,-1.2,1.2,-1,250.5,625.4)" class="st2" width="21.6" height="8.1"/>
				</g>
				<g>
					
						<rect x="52" y="303.3" transform="matrix(-1,-1.2,1.2,-1,274.7,648.2)" class="st3" width="21.6" height="8.1"/>
					
						<rect x="27.8" y="303.3" transform="matrix(-1,-1.2,1.2,-1,226.2,648.2)" class="st3" width="21.6" height="8.1"/>
				</g>
			</g>
			<g>
				<g>
					<rect x="341" y="215.9" class="st2" width="21.6" height="8.1"/>
					<rect x="365.2" y="215.9" class="st2" width="21.6" height="8.1"/>
				</g>
				<g>
					<rect x="353.1" y="227.3" class="st3" width="21.6" height="8.1"/>
					<rect x="377.3" y="227.3" class="st3" width="21.6" height="8.1"/>
				</g>
			</g>
		</g>
		<g>
			
				<radialGradient id="SVGID_00000034783530286171335860000012501634532907680691_" cx="95.1963" cy="108.6362" r="45.3286" gradientTransform="matrix(0.9183 -0.3959 0.3472 0.8053 -15.3147 190.2274)" gradientUnits="userSpaceOnUse">
				<stop  offset="0" style="stop-color: #3E84FF"/>
				<stop  offset="0.3" style="stop-color: #5469FF; stop-opacity: 0.6714"/>
				<stop  offset="0.8" style="stop-color: #6B4BFF; stop-opacity: 0.2431"/>
				<stop  offset="1" style="stop-color: #7440FF; stop-opacity: 0"/>
			</radialGradient>
			<path style="fill: url(#SVGID_00000034783530286171335860000012501634532907680691_)" d="M 214.1 326.4 c 10.7 24.8 -3.2 54.5 -30.9 66.5 c -27.8 12 -58.9 1.6 -69.6 -23.1 s 3.2 -54.5 30.9 -66.5 S 203.4 301.6 214.1 326.4 z"/>
			
				<linearGradient id="SVGID_00000060748991217809192680000002806624211784083356_" gradientUnits="userSpaceOnUse" x1="76.8205" y1="115.4086" x2="112.4494" y2="408.778">
				<stop  offset="0" style="stop-color: #3E84FF"/>
				<stop  offset="1" style="stop-color: #7440FF"/>
			</linearGradient>
			<path style="fill: url(#SVGID_00000060748991217809192680000002806624211784083356_)" d="M 189.2 291.7 v 65.9 c 0 2.4 -1.9 4.3 -4.3 4.3 H 101.3 c -2.4 0 -4.3 -1.9 -4.3 -4.3 v -65.9 c 0 -2.4 1.9 -4.3 4.3 -4.3 h 83.6 C 187.3 287.4 189.2 289.3 189.2 291.7 z"/>
			<path class="st6" d="M 136 298.8 H 104.9 c -0.9 0 -1.6 -0.7 -1.6 -1.6 l 0 0 c 0 -0.9 0.7 -1.6 1.6 -1.6 h 31.1 c 0.9 0 1.6 0.7 1.6 1.6 l 0 0 C 137.7 298.1 136.9 298.8 136 298.8 z"/>
			<path class="st7" d="M 136 309.9 H 104.9 c -0.9 0 -1.6 -0.7 -1.6 -1.6 l 0 0 c 0 -0.9 0.7 -1.6 1.6 -1.6 h 31.1 c 0.9 0 1.6 0.7 1.6 1.6 l 0 0 C 137.7 309.2 136.9 309.9 136 309.9 z"/>
			<path class="st6" d="M 146.4 321.1 h -41.5 c -0.9 0 -1.6 -0.7 -1.6 -1.6 l 0 0 c 0 -0.9 0.7 -1.6 1.6 -1.6 h 41.5 c 0.9 0 1.6 0.7 1.6 1.6 l 0 0 C 148.1 320.3 147.3 321.1 146.4 321.1 z"/>
			<path class="st6" d="M 146.4 352.2 h -41.5 c -0.9 0 -1.6 -0.7 -1.6 -1.6 l 0 0 c 0 -0.9 0.7 -1.6 1.6 -1.6 h 41.5 c 0.9 0 1.6 0.7 1.6 1.6 l 0 0 C 148.1 351.4 147.3 352.2 146.4 352.2 z"/>
			<path class="st7" d="M 176.6 352.2 h -20.9 c -0.9 0 -1.6 -0.7 -1.6 -1.6 l 0 0 c 0 -0.9 0.7 -1.6 1.6 -1.6 h 20.9 c 0.9 0 1.6 0.7 1.6 1.6 l 0 0 C 178.3 351.4 177.5 352.2 176.6 352.2 z"/>
			<g>
				<path class="st8" d="M 127 328.5 v 4.7 c 0 0.4 0.3 0.7 0.7 0.7 h 2.6 c 0.4 0 0.7 -0.3 0.7 -0.7 v -4.7 c 0 -0.4 0.3 -0.7 0.7 -0.7 h 0.3 c 0.4 0 0.7 0.3 0.7 0.7 v 12.9 c 0 0.4 -0.3 0.7 -0.7 0.7 H 131.7 c -0.4 0 -0.7 -0.3 -0.7 -0.7 v -5.3 c 0 -0.4 -0.3 -0.7 -0.7 -0.7 h -2.6 c -0.4 0 -0.7 0.3 -0.7 0.7 v 5.3 c 0 0.4 -0.3 0.7 -0.7 0.7 h -0.3 c -0.4 0 -0.7 -0.3 -0.7 -0.7 v -12.9 c 0 -0.4 0.3 -0.7 0.7 -0.7 h 0.3 C 126.7 327.9 127 328.2 127 328.5 z"/>
				<path class="st8" d="M 136.2 329.3 h -1.2 c -0.4 0 -0.7 -0.3 -0.7 -0.7 v -0.1 c 0 -0.4 0.3 -0.7 0.7 -0.7 h 5.4 c 0.4 0 0.7 0.3 0.7 0.7 v 0.1 c 0 0.4 -0.3 0.7 -0.7 0.7 h -1.2 c -0.4 0 -0.7 0.3 -0.7 0.7 v 11.4 c 0 0.4 -0.3 0.7 -0.7 0.7 h -0.3 c -0.4 0 -0.7 -0.3 -0.7 -0.7 V 330 C 136.8 329.6 136.5 329.3 136.2 329.3 z"/>
				<path class="st8" d="M 151.2 336 c -0.1 -1.9 -0.2 -4 -0.2 -5.6 h -0.1 c -0.3 1.6 -0.7 3.3 -1.1 4.9 l -1.8 6.7 h -1 l -1.7 -6.4 c -0.5 -1.8 -0.9 -3.6 -1.2 -5.2 h -0.1 c 0 1.7 -0.1 3.6 -0.2 5.7 l -0.2 5.4 c 0 0.4 -0.3 0.7 -0.7 0.7 h -0.1 c -0.4 0 -0.7 -0.3 -0.7 -0.7 l 0.8 -12.9 c 0 -0.4 0.3 -0.6 0.7 -0.6 h 0.6 c 0.3 0 0.6 0.2 0.7 0.5 l 1.5 6 c 0.5 1.9 0.8 3.3 1.1 4.9 h 0.1 c 0.3 -1.6 0.6 -3 1.1 -4.9 l 1.5 -6 c 0.1 -0.3 0.3 -0.5 0.7 -0.5 h 0.6 c 0.4 0 0.7 0.3 0.7 0.6 l 0.7 12.9 c 0 0.4 -0.3 0.7 -0.7 0.7 h -0.1 c -0.4 0 -0.7 -0.3 -0.7 -0.7 L 151.2 336 z"/>
				<path class="st8" d="M 155.9 327.9 h 0.3 c 0.4 0 0.7 0.3 0.7 0.7 v 11.5 c 0 0.4 0.3 0.7 0.7 0.7 h 2.6 c 0.4 0 0.7 0.3 0.7 0.7 l 0 0 c 0 0.4 -0.3 0.7 -0.7 0.7 h -4.3 c -0.4 0 -0.7 -0.3 -0.7 -0.7 v -12.9 C 155.2 328.2 155.5 327.9 155.9 327.9 z"/>
			</g>
			
				<radialGradient id="SVGID_00000058583156660225468370000016663399102083903646_" cx="122.427" cy="242.5473" r="8.8144" gradientUnits="userSpaceOnUse">
				<stop  offset="0" style="stop-color: #FFFFFF"/>
				<stop  offset="1" style="stop-color: #000000"/>
			</radialGradient>
			<circle style="fill: url(#SVGID_00000058583156660225468370000016663399102083903646_)" cx="176.4" cy="350.6" r="8.8"/>
		</g>
		<g>
			<path class="st2" d="M 189.2 291.7 v 29.1 H 142 c -2 0 -3.6 -1.6 -3.6 -3.6 V 287.4 h 46.5 C 187.3 287.4 189.2 289.3 189.2 291.7 z"/>
			
				<linearGradient id="SVGID_00000172415089470041882680000016940270876544843962_" gradientUnits="userSpaceOnUse" x1="171.2527" y1="70.1461" x2="171.2527" y2="182.1453">
				<stop  offset="0" style="stop-color: #3E84FF"/>
				<stop  offset="1" style="stop-color: #7440FF"/>
			</linearGradient>
			<path style="fill: url(#SVGID_00000172415089470041882680000016940270876544843962_)" d="M 306 214.9 H 144.5 v -3.5 c 0 -1.7 1.4 -3 3 -3 h 155.4 c 1.7 0 3 1.4 3 3 V 214.9 z"/>
			<path class="st11" d="M 302.4 314.7 H 148.1 c -2 0 -3.6 -1.6 -3.6 -3.6 v -96.2 h 161.5 v 96.2 C 306 313.1 304.4 314.7 302.4 314.7 z"/>
			<g>
				<path class="st7" d="M 299 211.6 c 0 0.6 -0.5 1.1 -1.1 1.1 c -0.6 0 -1.1 -0.5 -1.1 -1.1 c 0 -0.6 0.5 -1.1 1.1 -1.1 C 298.5 210.5 299 211 299 211.6 z"/>
				<path class="st7" d="M 292.1 211.6 c 0 0.6 -0.5 1.1 -1.1 1.1 c -0.6 0 -1.1 -0.5 -1.1 -1.1 c 0 -0.6 0.5 -1.1 1.1 -1.1 C 291.6 210.5 292.1 211 292.1 211.6 z"/>
				<path class="st7" d="M 285.1 211.6 c 0 0.6 -0.5 1.1 -1.1 1.1 c -0.6 0 -1.1 -0.5 -1.1 -1.1 c 0 -0.6 0.5 -1.1 1.1 -1.1 C 284.6 210.5 285.1 211 285.1 211.6 z"/>
			</g>
			<path class="st8" d="M 243.4 227.3 h -82.6 c -0.9 0 -1.6 -0.7 -1.6 -1.6 l 0 0 c 0 -0.9 0.7 -1.6 1.6 -1.6 h 82.6 c 0.9 0 1.6 0.7 1.6 1.6 l 0 0 C 245.1 226.6 244.3 227.3 243.4 227.3 z"/>
			<path class="st8" d="M 243.4 237.6 h -82.6 c -0.9 0 -1.6 -0.7 -1.6 -1.6 l 0 0 c 0 -0.9 0.7 -1.6 1.6 -1.6 h 82.6 c 0.9 0 1.6 0.7 1.6 1.6 l 0 0 C 245.1 236.9 244.3 237.6 243.4 237.6 z"/>
			<path class="st6" d="M 198.8 248 h -38 c -0.9 0 -1.6 -0.7 -1.6 -1.6 v 0 c 0 -0.9 0.7 -1.6 1.6 -1.6 h 38 c 0.9 0 1.6 0.7 1.6 1.6 v 0 C 200.5 247.3 199.8 248 198.8 248 z"/>
			<path class="st6" d="M 243.4 289 h -82.6 c -0.9 0 -1.6 -0.7 -1.6 -1.6 l 0 0 c 0 -0.9 0.7 -1.6 1.6 -1.6 h 82.6 c 0.9 0 1.6 0.7 1.6 1.6 l 0 0 C 245.1 288.3 244.3 289 243.4 289 z"/>
			<path class="st6" d="M 198.8 299.4 h -38 c -0.9 0 -1.6 -0.7 -1.6 -1.6 l 0 0 c 0 -0.9 0.7 -1.6 1.6 -1.6 h 38 c 0.9 0 1.6 0.7 1.6 1.6 l 0 0 C 200.5 298.7 199.8 299.4 198.8 299.4 z"/>
			<g>
				<path class="st6" d="M 277 234.1 c -7.7 0 -13.9 6.2 -13.9 13.9 c 0 7.7 6.2 13.9 13.9 13.9 c 7.7 0 13.9 -6.2 13.9 -13.9 C 290.9 240.3 284.7 234.1 277 234.1 z M 277 259.5 c -6.4 0 -11.5 -5.2 -11.5 -11.5 c 0 -6.4 5.2 -11.5 11.5 -11.5 c 6.4 0 11.5 5.2 11.5 11.5 C 288.6 254.4 283.4 259.5 277 259.5 z"/>
				<path class="st6" d="M 282.8 251.1 c -3.2 3.2 -8.3 3.2 -11.5 0 c -0.3 -0.3 -0.9 -0.3 -1.2 0 c -0.3 0.3 -0.3 0.8 0 1.2 c 1.9 1.9 4.4 2.9 6.9 2.9 c 2.5 0 5 -1 6.9 -2.9 c 0.3 -0.3 0.3 -0.8 0 -1.2 C 283.6 250.8 283.1 250.8 282.8 251.1 z"/>
				<path class="st6" d="M 272 247.2 c 0.8 0 1.4 -0.6 1.4 -1.4 c 0 -0.8 -0.6 -1.4 -1.4 -1.4 s -1.4 0.6 -1.4 1.4 C 270.6 246.6 271.3 247.2 272 247.2 z"/>
				<path class="st6" d="M 282 247.2 c 0.8 0 1.4 -0.6 1.4 -1.4 c 0 -0.8 -0.6 -1.4 -1.4 -1.4 c -0.8 0 -1.4 0.6 -1.4 1.4 C 280.6 246.6 281.2 247.2 282 247.2 z"/>
			</g>
			<g>
				<g>
					<g>
						
							<linearGradient id="SVGID_00000030448753778886477700000006270674821231197858_" gradientUnits="userSpaceOnUse" x1="134.9569" y1="129.3239" x2="93.265" y2="187.44">
							<stop  offset="0" style="stop-color: #3E84FF"/>
							<stop  offset="1" style="stop-color: #7440FF"/>
						</linearGradient>
						<path style="fill: url(#SVGID_00000030448753778886477700000006270674821231197858_)" d="M 166.6 277.4 c -0.3 0 -0.7 -0.1 -1 -0.4 l -6.1 -6.5 c -0.5 -0.6 -0.5 -1.5 0 -2 l 6.2 -6.7 c 0.5 -0.6 1.4 -0.6 1.9 0 c 0.5 0.6 0.5 1.5 0 2.1 l -5.3 5.6 l 5.1 5.5 c 0.5 0.6 0.5 1.5 0 2.1 C 167.3 277.3 167 277.4 166.6 277.4 z"/>
					</g>
					<g>
						
							<linearGradient id="SVGID_00000061445969262698949920000012528445919576326073_" gradientUnits="userSpaceOnUse" x1="148.7562" y1="139.2233" x2="107.0643" y2="197.3394">
							<stop  offset="0" style="stop-color: #3E84FF"/>
							<stop  offset="1" style="stop-color: #7440FF"/>
						</linearGradient>
						<path style="fill: url(#SVGID_00000061445969262698949920000012528445919576326073_)" d="M 186.2 277.4 c -0.3 0 -0.7 -0.1 -1 -0.4 c -0.5 -0.6 -0.5 -1.5 0 -2.1 l 5.2 -5.5 l -5.3 -5.6 c -0.5 -0.6 -0.5 -1.5 0 -2.1 c 0.5 -0.6 1.4 -0.6 1.9 0 l 6.2 6.7 c 0.3 0.3 0.4 0.6 0.4 1 s -0.1 0.8 -0.4 1 l -6.1 6.5 C 186.9 277.3 186.6 277.4 186.2 277.4 z"/>
					</g>
				</g>
				<g>
					
						<linearGradient id="SVGID_00000146478614324061184230000010443003513669198749_" gradientUnits="userSpaceOnUse" x1="142.0586" y1="134.4187" x2="100.3667" y2="192.5348">
						<stop  offset="0" style="stop-color: #3E84FF"/>
						<stop  offset="1" style="stop-color: #7440FF"/>
					</linearGradient>
					<path style="fill: url(#SVGID_00000146478614324061184230000010443003513669198749_)" d="M 173.4 279.2 c -0.2 0 -0.3 0 -0.5 -0.1 c -0.7 -0.3 -1 -1.1 -0.7 -1.9 l 6.1 -15.9 c 0.3 -0.7 1.1 -1.1 1.8 -0.8 c 0.7 0.3 1 1.1 0.7 1.9 l -6.1 15.9 C 174.4 278.9 173.9 279.2 173.4 279.2 z"/>
				</g>
			</g>
			<g>
				<path class="st6" d="M 298.5 273.4 h -42.9 c -2.1 0 -3.9 -1.7 -3.9 -3.9 v -42.9 c 0 -2.1 1.7 -3.9 3.9 -3.9 h 42.9 c 2.1 0 3.9 1.7 3.9 3.9 v 42.9 C 302.4 271.6 300.6 273.4 298.5 273.4 z M 255.6 225 c -0.8 0 -1.5 0.7 -1.5 1.5 v 42.9 c 0 0.8 0.7 1.5 1.5 1.5 h 42.9 c 0.8 0 1.5 -0.7 1.5 -1.5 v -42.9 c 0 -0.8 -0.7 -1.5 -1.5 -1.5 H 255.6 z"/>
			</g>
			
				<linearGradient id="SVGID_00000021115264095206388470000007464107168726074770_" gradientUnits="userSpaceOnUse" x1="162.4358" y1="153.9032" x2="182.0052" y2="153.9032">
				<stop  offset="0" style="stop-color: #3E84FF"/>
				<stop  offset="1" style="stop-color: #7440FF"/>
			</linearGradient>
			<path style="fill: url(#SVGID_00000021115264095206388470000007464107168726074770_)" d="M 236 262.6 v -1.3 c 0 -0.5 -0.4 -0.9 -0.9 -0.9 h -2.2 c -0.2 -0.7 -0.5 -1.4 -0.8 -2 l 1.5 -1.5 c 0.4 -0.4 0.4 -0.9 0 -1.3 l -0.9 -0.9 c -0.4 -0.4 -0.9 -0.4 -1.3 0 l -1.5 1.5 c -0.6 -0.4 -1.3 -0.7 -2 -0.8 v -2.2 c 0 -0.5 -0.4 -0.9 -0.9 -0.9 h -1.3 c -0.5 0 -0.9 0.4 -0.9 0.9 v 2.2 c -0.7 0.2 -1.4 0.5 -2 0.8 l -1.5 -1.5 c -0.4 -0.4 -0.9 -0.4 -1.3 0 l -0.9 0.9 c -0.4 0.4 -0.4 0.9 0 1.3 l 1.5 1.5 c -0.4 0.6 -0.7 1.3 -0.8 2 h -2.2 c -0.5 0 -0.9 0.4 -0.9 0.9 v 1.3 c 0 0.5 0.4 0.9 0.9 0.9 h 2.2 c 0.2 0.7 0.5 1.4 0.8 2 l -1.5 1.5 c -0.4 0.4 -0.4 0.9 0 1.3 l 0.9 0.9 c 0.4 0.4 0.9 0.4 1.3 0 l 1.5 -1.5 c 0.6 0.4 1.3 0.7 2 0.8 v 2.2 c 0 0.5 0.4 0.9 0.9 0.9 h 1.3 c 0.5 0 0.9 -0.4 0.9 -0.9 v -2.2 c 0.7 -0.2 1.4 -0.5 2 -0.8 l 1.5 1.5 c 0.4 0.4 0.9 0.4 1.3 0 l 0.9 -0.9 c 0.4 -0.4 0.4 -0.9 0 -1.3 l -1.5 -1.5 c 0.4 -0.6 0.7 -1.3 0.8 -2 h 2.2 C 235.6 263.5 236 263.1 236 262.6 z M 226.9 265.6 c -2.6 0.4 -4.8 -1.8 -4.4 -4.4 c 0.3 -1.6 1.5 -2.8 3.1 -3.1 c 2.6 -0.4 4.8 1.8 4.4 4.4 C 229.7 264.1 228.4 265.4 226.9 265.6 z"/>
		</g>
		<g>
			<g>
				
					<linearGradient id="SVGID_00000163040459978597222550000000133235510020813482_" gradientUnits="userSpaceOnUse" x1="345.3733" y1="393.5054" x2="344.5327" y2="373.3313">
					<stop  offset="0" style="stop-color: #3E84FF"/>
					<stop  offset="1" style="stop-color: #7440FF"/>
				</linearGradient>
				<path style="fill: url(#SVGID_00000163040459978597222550000000133235510020813482_)" d="M 384.5 500.7 l 24.8 -1.4 c 0 0 9.9 -0.1 1.3 -5.2 c -1.5 -0.9 -2.9 -1.9 -4.1 -2.9 c -3.9 -3.4 -6.2 -7.2 -7.2 -9.2 l -4.9 1.3 l -8.5 2.2 c -0.1 0 -0.1 0 -0.2 0.1 C 385.1 490.6 384.5 500.7 384.5 500.7 z"/>
				<path class="st17" d="M 417.5 503.1 c 0 0 -0.5 -8.2 -6.9 -9 s -7.2 5.5 -7.2 5.5 l -18.9 -1.1 l -0.5 4.5 H 417.5 z"/>
				<path class="st17" d="M 394.4 483.3 c 0.8 2.5 2.9 8 6.9 9.7 c 1.9 -1.6 3.9 -1.8 5.2 -1.8 c -3.9 -3.4 -6.2 -7.2 -7.2 -9.2 L 394.4 483.3 z"/>
			</g>
			
				<linearGradient id="SVGID_00000007401322662948197810000000361581692285170567_" gradientUnits="userSpaceOnUse" x1="322.356" y1="259.421" x2="316.6707" y2="353.4164">
				<stop  offset="0" style="stop-color: #2B2B2B"/>
				<stop  offset="1" style="stop-color: #111111"/>
			</linearGradient>
			<path style="fill: url(#SVGID_00000007401322662948197810000000361581692285170567_)" d="M 400.1 480.2 l -16.6 1.8 c 0 0 -6.5 -52 -12.4 -73.5 c -1.9 4.4 -5.7 20.4 -9.3 36.4 c -4.1 18.6 -8 37.2 -8 37.2 s -9.5 1.1 -14.8 -3.2 c 1.6 -29.7 13.1 -88.9 14.6 -97.5 c 0 0.1 0 0.1 0.1 0.2 c 0.1 0.4 0.2 0.7 0.4 1 c 0.1 0.1 0.2 0.3 0.3 0.4 c 0 0 0 0 0 0 c 1.4 1.5 5.5 3.1 11.3 3.3 c 6.2 0.2 14.3 -1.3 22.9 -6.6 c 0.2 -0.4 0.2 -1.4 0.1 -2.7 c 0.3 0.3 0.8 3.8 1.6 9.3 C 393.5 411.6 400.1 480.2 400.1 480.2 z"/>
			
				<linearGradient id="SVGID_00000107568123479405908590000012329804636887014552_" gradientUnits="userSpaceOnUse" x1="288.7767" y1="259.3939" x2="296.6098" y2="227.5565">
				<stop  offset="0" style="stop-color: #3E84FF"/>
				<stop  offset="1" style="stop-color: #7440FF"/>
			</linearGradient>
			<path style="fill: url(#SVGID_00000107568123479405908590000012329804636887014552_)" d="M 353.5 351 l -1.2 4.5 l -0.1 0.3 l -0.3 1.1 v 0 c 0 0 -2.1 0.2 -5 -0.8 c -1.4 -0.4 -2.9 -1.1 -4.4 -2.2 c -0.4 -0.3 -0.8 -0.6 -1.1 -0.9 c 0.5 -6.1 2.5 -16.9 3.2 -20.3 c 0.1 -0.7 0.2 -1.1 0.2 -1.1 L 353.5 351 z"/>
			
				<linearGradient id="SVGID_00000023270573179795458010000004030551514056077476_" gradientUnits="userSpaceOnUse" x1="295.393" y1="241.5576" x2="283.454" y2="275.6692">
				<stop  offset="0" style="stop-color: #F78B7C"/>
				<stop  offset="1" style="stop-color: #FFB7A9"/>
			</linearGradient>
			<path style="fill: url(#SVGID_00000023270573179795458010000004030551514056077476_)" d="M 353.9 356.3 c 0 0 -1.2 5.5 -2.8 10.5 c -1.1 3.6 -2.4 6.9 -3.6 8 c -2.8 2.6 -10 7 -10 7 l -4.2 -8.6 l 6.2 -5.4 l 2.4 -10.8 l 0.7 -3.1 c 4.7 3.3 9.4 2.9 9.4 2.9 l 0.3 -1.1 L 353.9 356.3 z"/>
			
				<linearGradient id="SVGID_00000046315859114546067800000006643577981477432200_" gradientUnits="userSpaceOnUse" x1="302.1845" y1="202.7195" x2="318.356" y2="267.9106">
				<stop  offset="0" style="stop-color: #3E84FF"/>
				<stop  offset="1" style="stop-color: #7440FF"/>
			</linearGradient>
			<path style="fill: url(#SVGID_00000046315859114546067800000006643577981477432200_)" d="M 388.6 379.6 c -8.6 5.3 -16.7 6.8 -22.9 6.6 c -5.8 -0.2 -9.9 -1.9 -11.3 -3.4 c -0.1 -0.1 -0.2 -0.3 -0.3 -0.4 c -0.1 -0.3 -0.3 -0.6 -0.4 -1 c 0 -0.1 0 -0.1 -0.1 -0.2 c -0.4 -1.9 -0.5 -5.1 -0.5 -8.5 c 0 -0.5 0 -1 0 -1.6 c 0 -1.4 0 -2.8 0.1 -4.2 v 0 c 0 -1.8 0 -3.4 -0.1 -4.7 c 0 -0.6 -0.1 -1.1 -0.1 -1.5 c 0 -0.2 -0.1 -0.3 -0.1 -0.5 c 0 0 0 -0.1 0 -0.1 c -0.2 -0.8 -0.5 -1.9 -0.9 -3.3 v 0 c -0.4 -1.3 -0.9 -2.8 -1.4 -4.4 c -0.2 -0.5 -0.3 -1 -0.5 -1.5 c -0.5 -1.5 -1 -3 -1.5 -4.6 c -0.4 -1.2 -0.8 -2.4 -1.2 -3.7 c -0.1 -0.5 -0.3 -1 -0.4 -1.4 c -1 -3.3 -1.9 -6.3 -2.2 -8.3 c 0 -0.1 0 -0.2 0 -0.3 c 0 -0.2 -0.1 -0.4 -0.1 -0.6 c 0.1 -0.1 0.2 -0.3 0.3 -0.4 c 0.1 -0.1 0.1 -0.2 0.2 -0.3 c 1.8 -2.6 4.4 -5 6.6 -6.8 c 0.6 -0.5 1.3 -1 1.9 -1.4 c 0.5 -0.3 0.9 -0.7 1.3 -0.9 l 0 0 l 2.7 -1.5 c 3 -0.5 5.8 -0.7 8.3 -0.7 c 3.5 0 6.4 0.3 8.6 0.7 c 2.8 0.5 4.4 1 4.4 1 l 0.1 1.7 l 0.1 1.5 l 0.7 8.7 l 0.1 1.5 l 0.1 0.7 c 0 0 0 0 0 0 c 0.1 0.3 0.8 3.3 1.9 7.7 c 0.1 0.5 0.2 1 0.4 1.5 c 0.6 2.5 1.3 5.4 2 8.4 c 0.1 0.5 0.2 1 0.3 1.5 c 0.6 2.8 1.3 5.7 1.8 8.4 c 0.1 0.5 0.2 1 0.3 1.5 c 0.6 3.1 1.2 6.1 1.6 8.5 c 0.1 0.5 0.1 1 0.2 1.5 c 0.1 0.8 0.2 1.5 0.2 2.1 C 388.8 378.3 388.8 379.3 388.6 379.6 z"/>
			<g class="st22">
				<path class="st2" d="M 379.1 324.9 l -34.4 8.1 c 0 -0.1 0 -0.2 0 -0.3 c 0 -0.2 -0.1 -0.4 -0.1 -0.6 c 0.1 -0.1 0.2 -0.3 0.3 -0.4 c 0.1 -0.1 0.1 -0.2 0.2 -0.3 l 33.9 -8 L 379.1 324.9 z"/>
				<path class="st2" d="M 380 335.1 l -32.6 7.7 c -0.1 -0.5 -0.3 -1 -0.4 -1.4 l 32.9 -7.8 L 380 335.1 z"/>
				<path class="st2" d="M 382.3 345 l -31.7 7.5 c -0.2 -0.5 -0.3 -1 -0.5 -1.4 l 31.8 -7.5 C 382 344 382.1 344.5 382.3 345 z"/>
				<path class="st2" d="M 384.6 354.9 l -31.4 7.4 c 0 -0.6 -0.1 -1.1 -0.1 -1.5 l 31.2 -7.4 C 384.4 353.9 384.5 354.4 384.6 354.9 z"/>
				<path class="st2" d="M 386.7 364.8 l -33.5 7.9 c 0 -0.5 0 -1 0 -1.6 l 33.2 -7.8 C 386.5 363.8 386.6 364.3 386.7 364.8 z"/>
				<path class="st2" d="M 388.5 374.8 l -34.1 8 c -0.1 -0.1 -0.2 -0.3 -0.3 -0.4 c -0.1 -0.3 -0.3 -0.6 -0.4 -1 l 34.5 -8.1 C 388.4 373.9 388.4 374.4 388.5 374.8 z"/>
			</g>
			<path class="st2" d="M 374.5 320.7 c -1.6 4.5 -5.1 10.8 -12.4 11 c -8.6 0.3 -10.2 -4.7 -10.4 -7.1 c 0.6 -0.5 1.3 -1 1.9 -1.4 c 0.5 -0.3 0.9 -0.7 1.3 -0.9 l 0 0 l 2.7 -1.5 c 3 -0.5 5.8 -0.7 8.3 -0.7 C 369.4 320 372.3 320.3 374.5 320.7 z"/>
			<g>
				
					<linearGradient id="SVGID_00000025441077268310546150000010631343913818909848_" gradientUnits="userSpaceOnUse" x1="301.3633" y1="201.1646" x2="298.1417" y2="218.0308">
					<stop  offset="0" style="stop-color: #F78B7C"/>
					<stop  offset="1" style="stop-color: #FFB7A9"/>
				</linearGradient>
				<path style="fill: url(#SVGID_00000025441077268310546150000010631343913818909848_)" d="M 362.1 327.1 c -0.7 0.6 -1.5 1 -2.5 0.9 c -1.9 -0.3 -3 -1.6 -3.7 -2.6 c -0.4 -0.6 -0.6 -1.2 -0.7 -1.3 c 0 0 0 0 0 0 s -0.4 0.2 -1.5 0 c -0.1 0 -0.1 0 -0.2 0 c 0 0 -0.1 0 -0.1 0 c -0.8 -0.2 -2 -0.6 -3.5 -1.4 c -2.3 -1.3 -4.1 -3.2 -5.4 -5.1 c -0.3 -0.4 -0.6 -0.8 -0.8 -1.2 c -0.3 -0.5 -0.6 -0.9 -0.8 -1.3 c 5.2 -0.5 8.6 -4.2 10.1 -8.6 c 0 0 2.8 4.7 3.5 4.7 c 0.6 0 1.1 -4.4 3 -4.5 c 0.3 0 0.6 0.1 0.8 0.2 c 1.1 0.7 1.1 3.1 0.2 5.6 c -0.6 1.6 1.8 2.9 2.3 3 c 0 0 0.1 0 0.1 -0.1 c 0.1 1.7 0.4 3.5 0.7 4.8 c 0.1 0.7 0.3 1.3 0.4 1.7 C 364.4 322.8 363.6 325.6 362.1 327.1 z"/>
				<path class="st24" d="M 348.6 309.6 c -0.1 0.2 -1.8 3.6 -5.7 5.2 c -0.2 -0.3 -0.3 -0.6 -0.4 -0.8 C 345.6 312.4 348.4 309.7 348.6 309.6 z"/>
			</g>
			
				<linearGradient id="SVGID_00000181784838939374684960000006424560999579335604_" gradientUnits="userSpaceOnUse" x1="295.3627" y1="186.9932" x2="298.7738" y2="205.3755">
				<stop  offset="0" style="stop-color: #2B2B2B"/>
				<stop  offset="1" style="stop-color: #111111"/>
			</linearGradient>
			<path style="fill: url(#SVGID_00000181784838939374684960000006424560999579335604_)" d="M 366.7 305 c -0.8 5 -3.1 9.6 -3.8 10.2 c -0.1 0.1 -0.1 0.1 -0.1 0.1 c -0.5 -0.1 -2.9 -1.5 -2.3 -3 c 1.1 -3 0.9 -5.9 -1 -5.8 c -1.9 0.1 -2.4 4.5 -3 4.5 c -0.6 0 -3.5 -4.7 -3.5 -4.7 c -1.5 4.4 -4.9 8.1 -10.1 8.6 c -0.2 0 -0.4 0 -0.6 0 c 0.2 -0.1 0.3 -0.1 0.5 -0.2 c 3.9 -1.6 5.6 -5 5.7 -5.2 c -0.2 0.2 -2.9 2.8 -6.2 4.3 c -1.6 0.7 -3.3 1.2 -4.8 1 c -0.1 -0.1 -0.2 -0.3 -0.3 -0.5 c -4.6 -6.8 -1.3 -20.9 5.1 -23.6 c 0 0 -1.7 -0.5 -3.6 -1.9 c 2.8 0.6 10.1 -1.9 12.6 -1.6 c 2.5 0.3 3.3 2.3 3.3 2.3 s 3.2 -2.9 6.8 -1.7 c -1.8 -0.1 -3.1 2.1 -3.1 2.1 s 6.8 1.5 8.4 8.7 C 367.1 300.6 367.1 302.9 366.7 305 z"/>
			<path class="st2" d="M 362.1 327.1 c -0.7 0.6 -1.5 1 -2.5 0.9 c -1.9 -0.3 -3 -1.6 -3.7 -2.6 c -0.4 -0.6 -0.6 -1.2 -0.7 -1.3 c 1.2 -0.3 2.9 -1.3 4.2 -4.5 v 0 c 0 0 0 0 0 0 C 360.6 320.4 360.4 325.7 362.1 327.1 z"/>
			<g>
				<path class="st2" d="M 342.9 314.7 c -0.2 -0.3 -0.3 -0.6 -0.4 -0.8 c 3.2 -1.5 6 -4.2 6.2 -4.3 C 348.4 309.8 346.8 313.2 342.9 314.7 z"/>
				<path class="st2" d="M 360.4 306.7 c -3 1 -1.8 5.8 -3.4 6.1 c -2 0.3 -3 -2.7 -3 -2.7 s -1.3 2.5 -5.1 4.7 c -1.7 1 -3.6 1.3 -5.2 1.5 c -0.3 -0.5 -0.6 -0.9 -0.8 -1.3 c 5.2 -0.5 8.6 -4.2 10.1 -8.6 c 0 0 2.8 4.7 3.5 4.7 c 0.6 0 1.1 -4.4 3 -4.5 C 359.9 306.4 360.1 306.5 360.4 306.7 z"/>
			</g>
			<path class="st3" d="M 359.4 319.5 c -1.3 3.2 -2.9 4.2 -4.2 4.5 c 0 0 0 0 0 0 s -0.5 0.3 -1.7 0 c 0 0 -0.1 0 -0.1 0 c -0.8 -0.2 -2 -0.6 -3.5 -1.4 c -2.3 -1.3 -4.1 -3.2 -5.4 -5.1 c 0.4 0 0.9 0.1 1.6 0.6 c 1.6 1.2 3 4.1 6.5 4.8 C 356.3 323.6 358.5 320.9 359.4 319.5 z"/>
			<path class="st2" d="M 359.6 308.5 c 0 0 -0.6 1.8 -0.3 2.3 C 359.5 311.4 361.4 309.7 359.6 308.5 z"/>
			<path class="st2" d="M 366.7 305 c -0.8 5 -3.1 9.6 -3.8 10.2 c -0.1 0.1 -0.1 0.1 -0.1 0.1 c -0.5 -0.1 -2.9 -1.5 -2.3 -3 c 1.1 -3 0.9 -5.9 -1 -5.8 c -1.9 0.1 -2.4 4.5 -3 4.5 c -0.6 0 -3.5 -4.7 -3.5 -4.7 c -1.5 4.4 -4.9 8.1 -10.1 8.6 c -0.2 0 -0.4 0 -0.6 0 c 0.2 -0.1 0.3 -0.1 0.5 -0.2 c 3.9 -1.6 5.6 -5 5.7 -5.2 c -0.2 0.2 -2.9 2.8 -6.2 4.3 c -1.6 0.7 -3.3 1.2 -4.8 1 c -0.1 -0.1 -0.2 -0.3 -0.3 -0.5 c 3.5 -2.4 12.3 -8.9 12.1 -15.4 c 1.7 3.2 1.3 7.3 1.3 7.3 s 1.6 -4.3 1.3 -7.9 c 2.6 3.6 3.3 6.7 3.3 6.7 s 0.4 -3.6 4.5 -4.3 c 4.2 -0.7 4.4 5.4 4.4 5.4 s 1.4 -2.2 -0.2 -6.1 C 365 300.8 366 302.7 366.7 305 z"/>
			<path class="st26" d="M 361 330.1 c -5.1 0.7 -6.8 -4.2 -7.3 -6 c 1.1 0.2 1.5 0 1.5 0 s 0 0 0 0 c 0.1 0.2 0.3 0.7 0.7 1.3 c 0.6 1 1.8 2.3 3.7 2.6 c 1 0.2 1.9 -0.2 2.5 -0.9 c 1.5 -1.5 2.2 -4.3 1.9 -5.4 c -0.1 -0.4 -0.2 -0.9 -0.4 -1.7 c 0.8 0 1.5 -0.1 2.3 -0.1 C 366.1 324 365.5 329.5 361 330.1 z"/>
			<path class="st2" d="M 353.3 367 c 0 -2.8 0 -5.3 -0.3 -6.7 c -0.2 -0.8 -0.5 -1.9 -1 -3.4 c 0 0 -2.1 0.2 -5 -0.8 c 0.4 -1.6 0.4 -4.8 0.5 -8.9 c 0 -1.6 -0.1 -4 -0.5 -5.5 c 1.9 4.3 4.4 9.2 5.3 13.7 C 353.3 360.3 353.6 364.6 353.3 367 z"/>
			<path class="st2" d="M 388.6 379.6 c -8.6 5.3 -16.7 6.8 -22.9 6.6 c 7.4 -3.1 5.2 -10.5 -1.6 -11.9 c 6.8 -5.1 12.3 -9.5 11.2 -25.9 c -0.6 -8.4 0.6 -15.3 0.6 -15.3 l 4.1 2.7 C 380.3 337 390.2 376.4 388.6 379.6 z"/>
			
				<linearGradient id="SVGID_00000103980726768091198060000000886931844338814617_" gradientUnits="userSpaceOnUse" x1="337.4963" y1="248.2019" x2="323.5986" y2="223.6914">
				<stop  offset="0" style="stop-color: #3E84FF"/>
				<stop  offset="1" style="stop-color: #7440FF"/>
			</linearGradient>
			<path style="fill: url(#SVGID_00000103980726768091198060000000886931844338814617_)" d="M 388.8 341.4 c 0 0.1 -0.1 0.3 -0.1 0.4 c -0.4 0.8 -1.5 1.6 -2.9 2.3 c -2.4 1.3 -5.7 2.3 -7.2 2.7 c -0.5 0.1 -0.7 0.2 -0.7 0.2 s -4.1 -8.1 -4.8 -15.2 c -0.5 -4.5 0.4 -8.6 4.6 -9.9 c 0.4 -0.1 0.8 -0.2 1.2 -0.3 c 0 0 5.7 3.2 9.7 19 C 388.7 340.9 388.7 341.1 388.8 341.4 z"/>
			
				<linearGradient id="SVGID_00000108987741027144027860000011139498908680783243_" gradientUnits="userSpaceOnUse" x1="333.0475" y1="218.8456" x2="311.4436" y2="271.9079">
				<stop  offset="0" style="stop-color: #F78B7C"/>
				<stop  offset="1" style="stop-color: #FFB7A9"/>
			</linearGradient>
			<path style="fill: url(#SVGID_00000108987741027144027860000011139498908680783243_)" d="M 392.5 362.7 c -1.6 3.2 -27.8 15.9 -27.8 15.9 s -2 3.8 -5.7 4.6 c -3.7 0.8 -6.4 -1.3 -8.6 -1.4 c -2.1 -0.1 -5.2 2.1 -5.2 2.1 s -0.4 0 -0.7 -0.1 c -0.4 -0.2 -0.7 -0.7 0 -1.9 c 2.8 -5.1 13.2 -5.9 14 -6.3 c 0.4 -0.2 5.6 -4.4 11 -8.8 c 6.1 -4.9 12.3 -10 12.3 -10 l -2.5 -7.6 l -0.8 -2.4 c 2.3 -0.7 9 -2.9 10.1 -5.1 c 0.3 0.9 0.6 2.2 1.1 3.7 C 391.3 351.3 393.6 360.6 392.5 362.7 z"/>
			<path class="st2" d="M 389.7 345.5 c -3.4 3.1 -8 3.7 -10.3 3.8 l -0.8 -2.4 c 2.3 -0.7 9 -2.9 10.1 -5.1 C 388.9 342.7 389.3 344 389.7 345.5 z"/>
			<path class="st2" d="M 352.9 360.2 c -0.5 1.9 -1.1 4.3 -1.9 6.6 c -3.2 -2 -7.1 -6.9 -9.2 -9.8 l 0.7 -3.1 c 4.7 3.3 9.4 2.9 9.4 2.9 C 352.4 358.3 352.8 359.4 352.9 360.2 z"/>
			<path class="st29" d="M 399.6 484.4 l -14.1 1.2 c -1.3 0.1 -2.4 -0.9 -2.6 -2.1 l 0 -0.3 c -0.1 -1.3 0.9 -2.4 2.1 -2.6 l 14.1 -1.2 c 1.3 -0.1 2.4 0.9 2.6 2.1 l 0 0.3 C 401.9 483.2 400.9 484.3 399.6 484.4 z"/>
			<path class="st29" d="M 355.6 483.7 c -0.3 1.1 -1.3 1.9 -2.4 1.9 c -0.1 0 -0.3 0 -0.4 0 c -0.1 0 -0.1 0 -0.2 -0.1 l -13.4 -3.5 l -0.7 -0.2 c -1.4 -0.4 -2.1 -1.7 -1.8 -3.1 c 0.3 -1.1 1.3 -1.9 2.4 -1.9 c 0.2 0 0.4 0 0.6 0.1 l 14.1 3.7 C 355.2 481 356 482.4 355.6 483.7 z"/>
			<g>
				
					<linearGradient id="SVGID_00000112617996109485885790000013261555137389200783_" gradientUnits="userSpaceOnUse" x1="285.4266" y1="396.0031" x2="284.5861" y2="375.8289">
					<stop  offset="0" style="stop-color: #3E84FF"/>
					<stop  offset="1" style="stop-color: #7440FF"/>
				</linearGradient>
				<path style="fill: url(#SVGID_00000112617996109485885790000013261555137389200783_)" d="M 354 500.7 l -24.8 -1.4 c 0 0 -9.9 -0.1 -1.3 -5.2 c 1.5 -0.9 2.9 -1.9 4.1 -2.9 c 3.9 -3.4 6.2 -7.2 7.2 -9.2 l 4.9 1.3 l 8.5 2.2 c 0.1 0 0.1 0 0.2 0.1 C 353.4 490.6 354 500.7 354 500.7 z"/>
				<path class="st17" d="M 321 503.1 c 0 0 0.5 -8.2 6.9 -9 c 6.4 -0.8 7.2 5.5 7.2 5.5 l 18.9 -1.1 l 0.5 4.5 H 321 z"/>
				<path class="st17" d="M 344.1 483.3 c -0.8 2.5 -2.9 8 -6.9 9.7 c -1.9 -1.6 -3.9 -1.8 -5.2 -1.8 c 3.9 -3.4 6.2 -7.2 7.2 -9.2 L 344.1 483.3 z"/>
			</g>
			<path class="st2" d="M 388.8 341.4 c 0 0.1 -0.1 0.3 -0.1 0.4 c -0.4 0.8 -1.5 1.6 -2.9 2.3 c 0 -2.9 -0.4 -7 -1.6 -11.1 c -1.6 -5.3 -4.8 -9.2 -6.5 -11.1 c 0.4 -0.1 0.8 -0.2 1.2 -0.3 c 0 0 5.7 3.2 9.7 19 C 388.7 340.9 388.7 341.1 388.8 341.4 z"/>
			<path class="st31" d="M 382.6 386.2 c 0 0 -0.4 5.5 5.1 6.6"/>
			<line class="st31" x1="331.16" y1="287.07" x2="341.94" y2="368.85"/>
			<line class="st31" x1="314.5" y1="299.45" x2="296.22" y2="368.85"/>
			<path class="st2" d="M 371.1 408.5 c -1.9 4.4 -5.7 20.4 -9.3 36.4 c -0.1 -8.3 0.1 -17.3 1 -24 C 365.1 404.1 371.1 408.5 371.1 408.5 z"/>
			<path class="st2" d="M 390.3 386.2 c -24.3 12.1 -35.3 -2.7 -35.8 -3.3 c 1.4 1.5 5.5 3.1 11.3 3.3 c 6.2 0.2 14.3 -1.3 22.9 -6.6 c 0.2 -0.4 0.2 -1.4 0.1 -2.7 C 389 377.2 389.6 380.7 390.3 386.2 z"/>
			<path class="st3" d="M 369.6 366.9 c -1 3.9 -9.3 10.2 -10.8 10.1 c -1.7 -0.1 -9.4 1.9 -11.8 3.3 c -1.9 1.1 -2.3 2.9 -2.4 3.6 c -0.4 -0.2 -0.7 -0.7 0 -1.9 c 2.8 -5.1 13.2 -5.9 14 -6.3 C 358.9 375.4 364.1 371.2 369.6 366.9 z"/>
		</g>
		<g>
			
				<linearGradient id="SVGID_00000014610115860567037540000005136217432487803038_" gradientUnits="userSpaceOnUse" x1="143.4545" y1="248.1159" x2="143.8749" y2="319.9866">
				<stop  offset="0" style="stop-color: #6D5BD8"/>
				<stop  offset="1" style="stop-color: #C7CFFF"/>
			</linearGradient>
			<path style="fill: url(#SVGID_00000014610115860567037540000005136217432487803038_)" d="M 214.2 396.4 l -1.9 -1.4 l -1.9 -1.4 c -0.3 0.4 -7.3 10.4 -14.3 29 c -6.5 17.1 -14.2 44.9 -14.2 80.4 h 4.7 C 186.6 436.6 213.9 396.8 214.2 396.4 z"/>
			
				<linearGradient id="SVGID_00000009590892679645072670000008460750166528746924_" gradientUnits="userSpaceOnUse" x1="216.3514" y1="253.9241" x2="173.061" y2="372.4475">
				<stop  offset="0" style="stop-color: #6D5BD8"/>
				<stop  offset="1" style="stop-color: #C7CFFF"/>
			</linearGradient>
			<path style="fill: url(#SVGID_00000009590892679645072670000008460750166528746924_)" d="M 256.4 396.4 l -1.9 -1.4 l -1.9 -1.4 c -0.3 0.4 -7.3 10.4 -14.3 29 c -6.5 17.1 -14.2 44.9 -14.2 80.4 h 4.7 C 228.8 436.6 256.1 396.8 256.4 396.4 z"/>
			
				<linearGradient id="SVGID_00000162335077064578818460000017853903368953476012_" gradientUnits="userSpaceOnUse" x1="324.9268" y1="270.7733" x2="366.1158" y2="367.8618">
				<stop  offset="0" style="stop-color: #6D5BD8"/>
				<stop  offset="1" style="stop-color: #C7CFFF"/>
			</linearGradient>
			<path style="fill: url(#SVGID_00000162335077064578818460000017853903368953476012_)" d="M 391.6 396.4 l 1.9 -1.4 l 1.9 -1.4 c 0.3 0.4 7.3 10.4 14.3 29 c 6.5 17.1 14.2 44.9 14.2 80.4 h -4.7 C 419.3 436.6 391.9 396.8 391.6 396.4 z"/>
			
				<linearGradient id="SVGID_00000171713261721984889070000014847958063482877059_" gradientUnits="userSpaceOnUse" x1="311.0668" y1="247.1358" x2="311.4871" y2="319.0064">
				<stop  offset="0" style="stop-color: #6D5BD8"/>
				<stop  offset="1" style="stop-color: #C7CFFF"/>
			</linearGradient>
			<path style="fill: url(#SVGID_00000171713261721984889070000014847958063482877059_)" d="M 349.4 396.4 l 1.9 -1.4 l 1.9 -1.4 c 0.3 0.4 7.3 10.4 14.3 29 c 6.5 17.1 14.2 44.9 14.2 80.4 h -4.7 C 377.1 436.6 349.7 396.8 349.4 396.4 z"/>
			<g>
				<path class="st36" d="M 395.9 394.1 c 0 0.9 -0.4 1.6 -0.9 2.2 c -0.6 0.6 -1.3 0.9 -2.2 0.9 H 181.3 c -1.7 0 -3.1 -1.4 -3.1 -3.1 c 0 -0.9 0.3 -1.6 0.9 -2.2 c 0.6 -0.6 1.3 -0.9 2.2 -0.9 h 211.6 C 394.5 391 395.9 392.4 395.9 394.1 z"/>
				<path class="st37" d="M 433.4 394.1 c 0 0.9 -0.4 1.6 -0.9 2.2 c -0.6 0.6 -1.3 0.9 -2.2 0.9 h -37.4 c 0.9 0 1.6 -0.4 2.2 -0.9 c 0.6 -0.6 0.9 -1.3 0.9 -2.2 c 0 -1.7 -1.4 -3.1 -3.1 -3.1 h 37.4 C 432 391 433.4 392.4 433.4 394.1 z"/>
			</g>
		</g>
		<g>
			<path class="st7" d="M 254.4 299.6 v 68.5 h -49.4 c -3.9 0 -7.1 -3.2 -7.1 -7.1 v -54.3 c 0 -3.9 3.2 -7.1 7.1 -7.1 H 254.4 z"/>
			<path class="st37" d="M 254.4 368 L 254.4 368 v -68.5 l 0 0 c -3.9 0 -7.1 3.2 -7.1 7.1 v 54.3 C 247.4 364.9 250.5 368 254.4 368 z"/>
			<path class="st2" d="M 229.9 368 h -17.3 l 4.3 -26.6 c 0 0 2 -3.9 6.5 -1.4 C 226.9 342.2 225.3 360.1 229.9 368 z"/>
			<path class="st36" d="M 205.4 382.9 l 11.4 -41.4 c 0.4 -1.5 2.4 -1.9 3.3 -0.6 c 1.7 2.4 3.6 6.6 3.1 12.6 c -0.9 10.4 -7 30.4 -7 30.4 L 205.4 382.9 z"/>
			<path class="st38" d="M 225.7 381.8 h -23.1 c -2.5 0 -4.6 2.1 -4.6 4.6 l 0 0 c 0 2.5 2.1 4.6 4.6 4.6 h 23.1 c 2.5 0 4.6 -2.1 4.6 -4.6 l 0 0 C 230.3 383.8 228.3 381.8 225.7 381.8 z"/>
			
				<linearGradient id="SVGID_00000009588468928011768670000010334154456928891777_" gradientUnits="userSpaceOnUse" x1="167.6912" y1="252.0428" x2="163.907" y2="197.1719">
				<stop  offset="0" style="stop-color: #3E84FF"/>
				<stop  offset="1" style="stop-color: #7440FF"/>
			</linearGradient>
			<path style="fill: url(#SVGID_00000009588468928011768670000010334154456928891777_)" d="M 223.3 327.9 c 0 3.3 -1.7 5.9 -3.8 5.9 s -3.8 -2.7 -3.8 -5.9 s 1.7 -5.9 3.8 -5.9 S 223.3 324.6 223.3 327.9 z"/>
		</g>
		<g>
			<polygon class="st36" points="367.5,387.7 337.7,386.2 337.7,391 367.5,391"/>
			<path class="st37" d="M 344 391 h -57.4 c -0.7 0 -1.3 -0.5 -1.4 -1.1 l -9.1 -37.3 c -0.2 -0.9 0.5 -1.8 1.4 -1.8 h 57.4 c 0.7 0 1.3 0.5 1.4 1.1 l 9.1 37.3 C 345.7 390.1 345 391 344 391 z"/>
			<path class="st7" d="M 342.2 389.2 H 284.7 c -0.7 0 -1.3 -0.5 -1.4 -1.1 l -9.1 -37.3 c -0.1 -0.5 0 -0.9 0.3 -1.3 c 0.3 -0.3 0.7 -0.5 1.1 -0.5 h 57.5 c 0.7 0 1.3 0.5 1.4 1.1 l 9.1 37.3 C 343.8 388.3 343.1 389.2 342.2 389.2 z"/>
			
				<linearGradient id="SVGID_00000165232930265281810540000011993434560257233559_" gradientUnits="userSpaceOnUse" x1="264.2957" y1="297.6489" x2="246.3631" y2="236.566">
				<stop  offset="0" style="stop-color: #3E84FF"/>
				<stop  offset="1" style="stop-color: #7440FF"/>
			</linearGradient>
			<path style="fill: url(#SVGID_00000165232930265281810540000011993434560257233559_)" d="M 311 369.7 c 0.8 2 0 4.1 -1.6 4.7 c -1.6 0.6 -3.6 -0.5 -4.3 -2.4 s 0 -4.1 1.6 -4.7 C 308.4 366.7 310.3 367.8 311 369.7 z"
				/>
		</g>
		<g>
			
				<radialGradient id="SVGID_00000059287933613161094010000016534185244912667577_" cx="352.7123" cy="142.8044" r="45.3286" gradientTransform="matrix(0.9183 -0.3959 0.3472 0.8053 -7.4037 208.5785)" gradientUnits="userSpaceOnUse">
				<stop  offset="0" style="stop-color: #3E84FF"/>
				<stop  offset="0.3" style="stop-color: #5469FF; stop-opacity: 0.6714"/>
				<stop  offset="0.8" style="stop-color: #6B4BFF; stop-opacity: 0.2431"/>
				<stop  offset="1" style="stop-color: #7440FF; stop-opacity: 0"/>
			</radialGradient>
			<path style="fill: url(#SVGID_00000059287933613161094010000016534185244912667577_)" d="M 470.3 270.3 c 10.7 24.8 -3.2 54.5 -30.9 66.5 c -27.8 12 -58.9 1.6 -69.6 -23.2 c -10.7 -24.8 3.2 -54.5 30.9 -66.5 S 459.6 245.5 470.3 270.3 z"/>
			
				<linearGradient id="SVGID_00000096765851726461899200000014849524006073908401_" gradientUnits="userSpaceOnUse" x1="338.709" y1="124.0474" x2="378.1269" y2="224.1082">
				<stop  offset="0" style="stop-color: #3E84FF"/>
				<stop  offset="1" style="stop-color: #7440FF"/>
			</linearGradient>
			<path style="fill: url(#SVGID_00000096765851726461899200000014849524006073908401_)" d="M 452.7 263.4 v 43.4 c 0 2.3 -1.9 4.2 -4.2 4.2 h -69.7 c -2.3 0 -4.2 -1.9 -4.2 -4.2 v -43.4 c 0 -2.3 1.9 -4.2 4.2 -4.2 h 69.7 C 450.8 259.2 452.7 261 452.7 263.4 z"/>
			<g>
				<g>
					<path class="st7" d="M 398.3 301.6 c -2.3 0 -4.2 -1.9 -4.2 -4.2 v -7.5 c 0 -0.6 -0.2 -1.1 -0.6 -1.5 l -1.5 -1.5 c -1 -1 -1 -2.6 0 -3.7 l 1.5 -1.5 c 0.4 -0.4 0.6 -0.9 0.6 -1.5 v -7.5 c 0 -2.3 1.9 -4.2 4.2 -4.2 v 2.1 c -1.2 0 -2.1 0.9 -2.1 2.1 v 7.5 c 0 1.1 -0.4 2.2 -1.2 3 l -1.5 1.5 c -0.2 0.2 -0.2 0.5 0 0.7 l 1.5 1.5 c 0.8 0.8 1.2 1.8 1.2 3 v 7.5 c 0 1.2 0.9 2.1 2.1 2.1 V 301.6 z"/>
				</g>
				<g>
					<path class="st7" d="M 428.9 268.5 c 2.3 0 4.2 1.9 4.2 4.2 v 7.5 c 0 0.6 0.2 1.1 0.6 1.5 l 1.5 1.5 c 1 1 1 2.6 0 3.7 l -1.5 1.5 c -0.4 0.4 -0.6 0.9 -0.6 1.5 v 7.5 c 0 2.3 -1.9 4.2 -4.2 4.2 v -2.1 c 1.2 0 2.1 -0.9 2.1 -2.1 v -7.5 c 0 -1.1 0.4 -2.2 1.2 -3 l 1.5 -1.5 c 0.2 -0.2 0.2 -0.5 0 -0.7 l -1.5 -1.5 c -0.8 -0.8 -1.2 -1.8 -1.2 -3 v -7.5 c 0 -1.2 -0.9 -2.1 -2.1 -2.1 V 268.5 z"/>
				</g>
				<path class="st7" d="M 423.2 278.8 c -1.8 -1.8 -4.6 -1.8 -6.4 0 l -3.2 3.2 l -3.2 -3.2 c -1.8 -1.8 -4.6 -1.8 -6.4 0 c -1.8 1.8 -1.8 4.6 0 6.4 l 3.2 3.2 l 6.4 6.4 l 6.4 -6.4 l 3.2 -3.2 C 425 283.5 425 280.6 423.2 278.8 z"/>
			</g>
		</g>
		<g>
			<path class="st43" d="M 363.4 262.9 v -2 c 0 -0.8 -0.6 -1.4 -1.4 -1.4 h -3.3 c -0.3 -1.1 -0.7 -2.1 -1.3 -3.1 l 2.3 -2.3 c 0.5 -0.5 0.5 -1.4 0 -2 l -1.4 -1.4 c -0.5 -0.5 -1.4 -0.5 -2 0 l -2.3 2.3 c -0.9 -0.6 -2 -1 -3.1 -1.3 v -3.3 c 0 -0.8 -0.6 -1.4 -1.4 -1.4 h -2 c -0.8 0 -1.4 0.6 -1.4 1.4 v 3.3 c -1.1 0.3 -2.1 0.7 -3.1 1.3 l -2.3 -2.3 c -0.5 -0.5 -1.4 -0.5 -2 0 l -1.4 1.4 c -0.5 0.5 -0.5 1.4 0 2 l 2.3 2.3 c -0.6 0.9 -1 2 -1.3 3.1 h -3.3 c -0.8 0 -1.4 0.6 -1.4 1.4 v 2 c 0 0.8 0.6 1.4 1.4 1.4 h 3.3 c 0.3 1.1 0.7 2.1 1.3 3.1 l -2.3 2.3 c -0.5 0.5 -0.5 1.4 0 2 l 1.4 1.4 c 0.5 0.5 1.4 0.5 2 0 l 2.3 -2.3 c 0.9 0.6 2 1 3.1 1.3 v 3.3 c 0 0.8 0.6 1.4 1.4 1.4 h 2 c 0.8 0 1.4 -0.6 1.4 -1.4 v -3.3 c 1.1 -0.3 2.1 -0.7 3.1 -1.3 l 2.3 2.3 c 0.5 0.5 1.4 0.5 2 0 l 1.4 -1.4 c 0.5 -0.5 0.5 -1.4 0 -2 l -2.3 -2.3 c 0.6 -0.9 1 -2 1.3 -3.1 h 3.3 C 362.8 264.3 363.4 263.7 363.4 262.9 z M 349.6 267.5 c -3.9 0.6 -7.3 -2.7 -6.6 -6.6 c 0.4 -2.4 2.3 -4.3 4.7 -4.7 c 3.9 -0.7 7.3 2.7 6.6 6.6 C 353.9 265.2 351.9 267.2 349.6 267.5 z"/>
			<g>
				<path class="st7" d="M 319.8 310.1 L 319.8 310.1 c -0.8 0 -1.4 -0.6 -1.5 -1.3 c -0.7 -6.2 -5.9 -10.9 -12.2 -10.9 c -5.2 0 -9.7 3.3 -11.5 7.9 l 2.9 0.6 l -3.6 2.7 l -1.5 1.1 h -0.3 l -1.1 -1.9 l -2.2 -3.7 l 2.9 0.6 c 2.1 -6 7.7 -10.3 14.4 -10.3 c 7.9 0 14.3 6 15.2 13.6 C 321.4 309.3 320.7 310.1 319.8 310.1 z"/>
				<path class="st7" d="M 292.2 314.2 L 292.2 314.2 c 0.8 0 1.4 0.6 1.5 1.3 c 0.7 6.2 5.9 10.9 12.2 10.9 c 5.2 0 9.7 -3.3 11.5 -7.9 l -2.9 -0.6 l 3.6 -2.7 l 1.5 -1.1 h 0.3 l 1.1 1.9 l 2.1 3.7 l -2.9 -0.6 c -2.1 6 -7.7 10.3 -14.4 10.3 c -7.9 0 -14.3 -6 -15.2 -13.6 C 290.6 314.9 291.3 314.2 292.2 314.2 z"/>
				<polygon class="st7" points="292.4,310.1 292.1,310.2 292.1,310.1"/>
			</g>
		</g>
		<path class="st44" d="M 436 512.2 c -0.2 4.6 -4.2 8.2 -8.9 8.2 H 181.1 c -4.9 0 -8.9 -4.1 -8.7 -9.1 c 0.1 -2.3 1.2 -4.4 2.8 -5.9 c 1.6 -1.5 3.8 -2.4 6.1 -2.4 h 246 C 432.2 503.1 436.2 507.2 436 512.2 z"/>
		<g>
			
				<linearGradient id="SVGID_00000091723544736937218970000006754136632916850564_" gradientUnits="userSpaceOnUse" x1="373.4096" y1="221.4206" x2="425.7841" y2="221.4206">
				<stop  offset="0" style="stop-color: #3E84FF"/>
				<stop  offset="1" style="stop-color: #7440FF"/>
			</linearGradient>
			
				<line style="fill:none;stroke:url(#SVGID_00000091723544736937218970000006754136632916850564_);stroke-width:2.9479;stroke-linecap:round;stroke-linejoin:round;stroke-miterlimit:10;" x1="374.88" y1="221.42" x2="424.31" y2="221.42"/>
			<line class="st46" x1="374.88" y1="230.22" x2="406.88" y2="230.22"/>
			<line class="st46" x1="374.88" y1="238.83" x2="406.88" y2="238.83"/>
			
				<radialGradient id="SVGID_00000017501943645849053810000001341308447787344813_" cx="374.8835" cy="230.2214" r="8.8144" gradientUnits="userSpaceOnUse">
				<stop  offset="0" style="stop-color: #FFFFFF"/>
				<stop  offset="1" style="stop-color: #000000"/>
			</radialGradient>
			<circle style="fill: url(#SVGID_00000017501943645849053810000001341308447787344813_)" cx="428.9" cy="338.2" r="8.8"/>
		</g>
		<g>
			<line class="st46" x1="118.32" y1="269.67" x2="68.89" y2="269.67"/>
			
				<linearGradient id="SVGID_00000104677392156637521170000013137214955263588029_" gradientUnits="userSpaceOnUse" x1="84.8542" y1="278.4715" x2="119.7939" y2="278.4715">
				<stop  offset="0" style="stop-color: #3E84FF"/>
				<stop  offset="1" style="stop-color: #7440FF"/>
			</linearGradient>
			
				<line style="fill:none;stroke:url(#SVGID_00000104677392156637521170000013137214955263588029_);stroke-width:2.9479;stroke-linecap:round;stroke-linejoin:round;stroke-miterlimit:10;" x1="118.32" y1="278.47" x2="86.33" y2="278.47"/>
			
				<linearGradient id="SVGID_00000031890980946062296890000005012977663298107549_" gradientUnits="userSpaceOnUse" x1="84.8542" y1="287.0825" x2="119.7939" y2="287.0825">
				<stop  offset="0" style="stop-color: #3E84FF"/>
				<stop  offset="1" style="stop-color: #7440FF"/>
			</linearGradient>
			
				<line style="fill:none;stroke:url(#SVGID_00000031890980946062296890000005012977663298107549_);stroke-width:2.9479;stroke-linecap:round;stroke-linejoin:round;stroke-miterlimit:10;" x1="118.32" y1="287.08" x2="86.33" y2="287.08"/>
			
				<radialGradient id="SVGID_00000130623511182552842570000015069953386031503002_" cx="118.6335" cy="269.5142" r="8.8144" gradientUnits="userSpaceOnUse">
				<stop  offset="0" style="stop-color: #FFFFFF"/>
				<stop  offset="1" style="stop-color: #000000"/>
			</radialGradient>
			<circle style="fill: url(#SVGID_00000130623511182552842570000015069953386031503002_)" cx="172.6" cy="377.5" r="8.8"/>
		</g>
		
			<radialGradient id="SVGID_00000080185359242941316500000014534510510334243736_" cx="182.6865" cy="391.363" r="232.6777" gradientUnits="userSpaceOnUse">
			<stop  offset="0" style="stop-color: #FF00FF"/>
			<stop  offset="1" style="stop-color: #00FFFF; stop-opacity: 0"/>
		</radialGradient>
		<path style="fill: url(#SVGID_00000080185359242941316500000014534510510334243736_)" d="M 343.6 387.4 l -9.1 -37.3 c -0.2 -0.7 -0.7 -1.1 -1.4 -1.1 h -57.4 c -0.4 0 -0.9 0.2 -1.1 0.5 l -0.4 -0.2 l 10.6 -57.3 c 0 0 83 -41.2 99.4 8.1 c 1 3.1 28.4 42.8 28.9 45.5 C 420.6 386.4 343.6 387.4 343.6 387.4 z"/>
		<g>
			<path class="st52" d="M 208.2 357.9 c 0 0 -15.6 83.1 51.6 92 c 51 6.8 106.8 -34.1 92.9 -61.3"/>
			<path class="st53" d="M 232.3 356.2 c 0 0 -21.2 37.6 0 90.7 c 21.2 53.1 149.9 67.9 126.4 -57.3"/>
			
				<radialGradient id="SVGID_00000046301551469344983360000009314304817447115708_" cx="278.4305" cy="322.4656" r="8.8144" gradientUnits="userSpaceOnUse">
				<stop  offset="0" style="stop-color: #FFFFFF"/>
				<stop  offset="1" style="stop-color: #000000"/>
			</radialGradient>
			<circle style="fill: url(#SVGID_00000046301551469344983360000009314304817447115708_)" cx="332.4" cy="430.5" r="8.8"/>
			
				<radialGradient id="SVGID_00000164515705177322839910000009407246075193951154_" cx="208.8416" cy="368.8529" r="8.8144" gradientUnits="userSpaceOnUse">
				<stop  offset="0" style="stop-color: #FFFFFF"/>
				<stop  offset="1" style="stop-color: #000000"/>
			</radialGradient>
			<circle style="fill: url(#SVGID_00000164515705177322839910000009407246075193951154_)" cx="262.8" cy="476.9" r="8.8"/>
		</g>
		<g>
			
				<linearGradient id="SVGID_00000090991400875028592840000014902395343856166030_" gradientUnits="userSpaceOnUse" x1="446.7101" y1="235.0287" x2="427.3802" y2="313.8644">
				<stop  offset="0" style="stop-color: #3E84FF"/>
				<stop  offset="1" style="stop-color: #7440FF"/>
			</linearGradient>
			<path style="fill: url(#SVGID_00000090991400875028592840000014902395343856166030_)" d="M 493.3 401.1 c -5.5 14.3 -12.6 27.9 -20.9 40.4 c 1.3 -9.8 10.7 -73.9 27.5 -94.8 C 502 360.3 498 382.3 493.3 401.1 z"/>
			<path class="st43" d="M 476.9 434.4 c -1.5 2.4 -3 4.8 -4.5 7.1 c -2.4 3.6 -4.9 7.2 -7.6 10.7 c -0.1 -0.9 -2.9 -48.3 12.1 -72.8 C 482.2 397.6 479.3 421.1 476.9 434.4 z"/>
			<g class="st2">
				<path d="M 499.9 346.8 c -3.5 13 -6.8 26.1 -9.8 39.2 c -1.5 6.6 -2.9 13.1 -4.2 19.7 c -1.3 6.6 -2.5 13.2 -3.2 19.9 l -1.2 -0.1 c 0.9 -6.7 2.2 -13.3 3.5 -19.9 c 1.4 -6.6 2.9 -13.2 4.5 -19.7 C 492.7 372.7 496.2 359.7 499.9 346.8 z"/>
			</g>
			<g class="st2">
				<path d="M 476.9 379.4 c -0.9 5.1 -1.7 10.3 -2.3 15.4 c -0.7 5.2 -1.2 10.3 -1.6 15.5 c -0.4 5.2 -0.7 10.4 -0.8 15.6 c 0 5.2 0.1 10.4 0.8 15.5 l -1.2 0.1 c -0.6 -5.2 -0.6 -10.5 -0.5 -15.7 c 0.1 -5.2 0.6 -10.4 1.1 -15.6 c 0.5 -5.2 1.2 -10.4 1.9 -15.5 C 475 389.7 475.9 384.5 476.9 379.4 z"/>
			</g>
		</g>
		<g>
			<path class="st43" d="M 151.3 464.1 c 0 0 -23.4 -14.3 -32.2 -42 c 24.4 3.1 46.3 43.3 46.3 43.3 L 151.3 464.1 z"/>
			<g class="st2">
				<path d="M 119.1 422.2 c 6.6 6 13.1 12.2 19.4 18.5 c 6.3 6.4 12.5 12.8 18.2 19.7 l -0.9 0.7 c -5.5 -7 -11.6 -13.6 -17.7 -20.1 C 132 434.6 125.6 428.3 119.1 422.2 z"/>
			</g>
			
				<linearGradient id="SVGID_00000159439070228248442280000007552062122707192481_" gradientUnits="userSpaceOnUse" x1="56.8244" y1="345.9001" x2="101.9275" y2="388.3502">
				<stop  offset="0" style="stop-color: #3E84FF"/>
				<stop  offset="1" style="stop-color: #7440FF"/>
			</linearGradient>
			<path style="fill: url(#SVGID_00000159439070228248442280000007552062122707192481_)" d="M 178.3 487.5 c -0.4 0.1 -0.9 0.2 -1.3 0.1 c -5.2 -4.5 -10.9 -9.9 -16.8 -16.4 c -28.8 -16.5 -56.8 18.3 -56.8 18.3 s 11.7 -40.6 44.3 -33.7 h 0 C 180.3 462.6 178.3 487.5 178.3 487.5 z"/>
			<g class="st2">
				<path d="M 103.3 489.5 c 4 -6.3 8.8 -12.1 14.4 -17.1 c 5.6 -4.9 12.1 -9.1 19.6 -10.7 c 3.7 -0.8 7.6 -0.9 11.3 -0.1 c 3.7 0.7 7.3 2.1 10.5 4.1 c 0.8 0.5 1.6 1 2.4 1.6 l 1.2 0.8 l 1.1 0.9 c 0.7 0.6 1.5 1.2 2.2 1.8 l 1 1 l 1 1.1 c 1.3 1.4 2.3 3.1 3.1 4.8 c 0.8 1.8 1.4 3.6 1.5 5.6 l -1.2 0 c -0.1 -1.7 -0.6 -3.5 -1.3 -5.2 c -0.7 -1.7 -1.7 -3.2 -2.9 -4.6 l -0.9 -1 l -1 -0.9 c -0.7 -0.6 -1.4 -1.2 -2.1 -1.8 l -1.1 -0.9 l -1.1 -0.8 c -0.8 -0.5 -1.5 -1.1 -2.3 -1.6 c -3.1 -2 -6.6 -3.4 -10.2 -4.1 c -3.6 -0.8 -7.4 -0.7 -11 0 c -7.3 1.4 -13.9 5.5 -19.5 10.3 C 112.3 477.5 107.3 483.2 103.3 489.5 z"/>
			</g>
		</g>
	</g>
</g>
<g id="DESIGNED_BY_FREEPIK">
</g>
</svg>
