<?xml version="1.0" encoding="utf-8"?>
<!-- Generator: Adobe Illustrator 27.8.1, SVG Export Plug-In . SVG Version: 6.00 Build 0)  -->
<svg version="1.1" xmlns="http://www.w3.org/2000/svg" xmlns:xlink="http://www.w3.org/1999/xlink" x="0px" y="0px"
	 viewBox="0 0 500 500" style="enable-background:new 0 0 500 500;" xml:space="preserve">
<style type="text/css">
	.st0{opacity:0.04;fill:url(#SVGID_1_);}
	.st1{opacity:0.08;}
	.st2{opacity:0.25;}
	.st3{opacity:0.25;fill:#FFFFFF;}
	.st4{fill:url(#SVGID_00000098938083302598434290000004652901731902520973_);}
	.st5{fill:url(#SVGID_00000036221606676222224190000017502159018972464032_);}
	.st6{fill:#002A66;}
	.st7{fill:#EEF8FF;}
	.st8{fill:#FFFFFF;}
	.st9{fill:url(#SVGID_00000144299895285668647020000000246515900118926210_);}
	.st10{fill:url(#SVGID_00000008827310204887980220000007064128744620636548_);}
	.st11{opacity:0.86;fill:#B3B3FF;}
	.st12{fill:url(#SVGID_00000147898876491997070130000008408627738767753902_);}
	.st13{fill:url(#SVGID_00000111912602529079314800000000605327007278496655_);}
	.st14{fill:url(#SVGID_00000064345075465263407530000000259730416264848553_);}
	.st15{fill:url(#SVGID_00000074418555970533479650000016836330102057247665_);}
	.st16{fill:url(#SVGID_00000141457510723744589320000000185586935616603835_);}
	.st17{fill:#010D19;}
	.st18{fill:url(#SVGID_00000034078183100284603620000004300279301931778217_);}
	.st19{fill:url(#SVGID_00000106830601162174604190000017981262175019013533_);}
	.st20{fill:url(#SVGID_00000136398434623785442090000015917594859967490473_);}
	.st21{fill:url(#SVGID_00000165231482235617432560000009015540964256639404_);}
	.st22{opacity:0.35;}
	.st23{fill:url(#SVGID_00000039127169497749597150000009556870795987246783_);}
	.st24{fill:#FFB7A9;}
	.st25{fill:url(#SVGID_00000023992875482449653490000012984701999175273401_);}
	.st26{fill:#0049B2;}
	.st27{fill:url(#SVGID_00000089554713953960122980000004074503602793293956_);}
	.st28{fill:url(#SVGID_00000119097782355614564130000003343033088877380779_);}
	.st29{fill:#A2A5AA;}
	.st30{fill:url(#SVGID_00000067203145089777858980000013898239526053293956_);}
	
		.st31{opacity:0.25;fill:none;stroke:#FFFFFF;stroke-width:1.1792;stroke-linecap:round;stroke-linejoin:round;stroke-miterlimit:10;}
	.st32{fill:url(#SVGID_00000029011113452853720150000007532918380295341722_);}
	.st33{fill:url(#SVGID_00000011722447213786377350000005853642120373724587_);}
	.st34{fill:url(#SVGID_00000181785654967610358660000004355088768861981073_);}
	.st35{fill:url(#SVGID_00000087382805795560624960000006593341306994269099_);}
	.st36{fill:#9CACF2;}
	.st37{fill:#C7CFFF;}
	.st38{fill:#7189E2;}
	.st39{fill:url(#SVGID_00000060737085762529884800000010325276690812887995_);}
	.st40{fill:url(#SVGID_00000094585067595043208350000000339350368140082084_);}
	.st41{fill:url(#SVGID_00000016786188422179626720000000067983777584176797_);}
	.st42{fill:url(#SVGID_00000101093394298447545110000011479280835530026389_);}
	.st43{fill:#B3CEE8;}
	.st44{opacity:0.28;}
	
		.st45{fill:none;stroke:url(#SVGID_00000146489639259317824180000008227567938841864871_);stroke-width:2.9479;stroke-linecap:round;stroke-linejoin:round;stroke-miterlimit:10;}
	.st46{fill:none;stroke:#FFFFFF;stroke-width:2.9479;stroke-linecap:round;stroke-linejoin:round;stroke-miterlimit:10;}
	.st47{fill:url(#SVGID_00000005987345353871806630000011124067833913442693_);}
	
		.st48{fill:none;stroke:url(#SVGID_00000147190727263807270940000003769150857624162449_);stroke-width:2.9479;stroke-linecap:round;stroke-linejoin:round;stroke-miterlimit:10;}
	
		.st49{fill:none;stroke:url(#SVGID_00000083046708882608905370000018222434908100456370_);stroke-width:2.9479;stroke-linecap:round;stroke-linejoin:round;stroke-miterlimit:10;}
	.st50{fill:url(#SVGID_00000179636358508893542160000016340473378874736528_);}
	.st51{fill:url(#SVGID_00000087393573801995760960000018237159751255049349_);}
	.st52{fill:none;stroke:#66D7FF;stroke-width:1.1792;stroke-linecap:round;stroke-linejoin:round;stroke-miterlimit:10;}
	.st53{fill:none;stroke:#0098FF;stroke-width:1.1792;stroke-linecap:round;stroke-linejoin:round;stroke-miterlimit:10;}
	.st54{fill:url(#SVGID_00000029759470683569149940000015137560501625395610_);}
	.st55{fill:url(#SVGID_00000006682404061623690270000006102106389054886784_);}
	.st56{fill:url(#SVGID_00000119115618609173839160000017303590755937516425_);}
	.st57{fill:url(#SVGID_00000052795965982300590910000007840855536235386530_);}
</style>
<g id="BACKGROUND">
</g>
<g id="OBJECTS">
	<g>
		<g>
			<linearGradient id="SVGID_1_" gradientUnits="userSpaceOnUse" x1="261.2611" y1="102.5818" x2="252.1645" y2="405.0378">
				<stop  offset="4.848288e-07" style="stop-color:#606060"/>
				<stop  offset="1" style="stop-color:#0B2935"/>
			</linearGradient>
			<path class="st0" d="M452.63,243.63c-1.64,16.66-5.72,33.05-11.73,48.65c-4.47,11.6-10,22.77-16.38,33.27
				c-1.47,2.41-2.98,4.79-4.54,7.14c-2.42,3.65-4.95,7.21-7.58,10.67c-6.59,8.7-13.76,16.75-21.37,24.01
				c-6.82,6.5-13.97,12.35-21.37,17.44c-4.18,2.88-2.16,9.42,2.91,9.42h2.34c0.31,0,0.62,0.02,0.92,0.05
				c4.48,0.47,7.94,4.36,7.72,9.02c-0.22,4.65-4.23,8.24-8.89,8.24H128.71c-4.92,0-8.88-4.1-8.65-9.07
				c0.11-2.32,1.17-4.39,2.78-5.86c1.61-1.48,3.78-2.38,6.11-2.38c4.93,0,7.05-6.24,3.15-9.25c-16.44-12.68-43.93-38.69-59.41-79.82
				c-7.62-20.24-12.33-44.14-11.39-71.92C65.09,121.19,171.8,59.79,296.21,81.02S460.03,168.61,452.63,243.63z"/>
			<path class="st1" d="M389.44,368.23c-5.47,10.31-10.8,19.56-15.2,26.91c-6.36,10.63-10.76,17.26-10.76,17.26H127.1
				c-4.92,0-8.88-4.1-8.65-9.07c0.11-2.32,1.17-4.39,2.78-5.86c1.61-1.48,3.78-2.38,6.11-2.38c4.93,0,7.05-6.24,3.15-9.25
				c-2.33-1.8-4.88-3.86-7.58-6.2c-5.18-4.46-10.92-9.93-16.79-16.43c-4.17-4.62-8.4-9.76-12.51-15.45H93.6
				c-8.43-11.63-16.41-25.51-22.52-41.75c18.59,18.69,45.89,38.14,80.34,40.43c68.22,4.55,196.14-122.22,251.85-100.06
				C438.76,260.51,412.9,324,389.44,368.23z"/>
			<g>
				<g>
					
						<rect x="138.63" y="308.66" transform="matrix(-1 -1.224647e-16 1.224647e-16 -1 298.8583 625.4073)" class="st2" width="21.6" height="8.09"/>
					
						<rect x="114.43" y="308.66" transform="matrix(-1 -1.224647e-16 1.224647e-16 -1 250.452 625.4073)" class="st2" width="21.6" height="8.09"/>
				</g>
				<g>
					
						<rect x="126.53" y="320.04" transform="matrix(-1 -1.224647e-16 1.224647e-16 -1 274.6552 648.1738)" class="st3" width="21.6" height="8.09"/>
					
						<rect x="102.32" y="320.04" transform="matrix(-1 -1.224647e-16 1.224647e-16 -1 226.2489 648.1738)" class="st3" width="21.6" height="8.09"/>
				</g>
			</g>
			<g>
				<g>
					<rect x="287.01" y="107.92" class="st2" width="21.6" height="8.09"/>
					<rect x="311.21" y="107.92" class="st2" width="21.6" height="8.09"/>
				</g>
				<g>
					<rect x="299.11" y="119.3" class="st3" width="21.6" height="8.09"/>
					<rect x="323.32" y="119.3" class="st3" width="21.6" height="8.09"/>
				</g>
			</g>
		</g>
		<g>
			
				<radialGradient id="SVGID_00000034783530286171335860000012501634532907680691_" cx="95.1963" cy="108.6362" r="45.3286" gradientTransform="matrix(0.9183 -0.3959 0.3472 0.8053 -15.3147 190.2274)" gradientUnits="userSpaceOnUse">
				<stop  offset="0" style="stop-color:#3E84FF"/>
				<stop  offset="0.3286" style="stop-color:#5469FF;stop-opacity:0.6714"/>
				<stop  offset="0.7569" style="stop-color:#6B4BFF;stop-opacity:0.2431"/>
				<stop  offset="1" style="stop-color:#7440FF;stop-opacity:0"/>
			</radialGradient>
			<path style="fill:url(#SVGID_00000034783530286171335860000012501634532907680691_);" d="M160.07,218.36
				c10.67,24.75-3.18,54.52-30.93,66.48c-27.75,11.96-58.9,1.6-69.57-23.15s3.18-54.52,30.93-66.48S149.4,193.61,160.07,218.36z"/>
			
				<linearGradient id="SVGID_00000060748991217809192680000002806624211784083356_" gradientUnits="userSpaceOnUse" x1="76.8205" y1="115.4086" x2="112.4494" y2="408.778">
				<stop  offset="0" style="stop-color:#3E84FF"/>
				<stop  offset="1" style="stop-color:#7440FF"/>
			</linearGradient>
			<path style="fill:url(#SVGID_00000060748991217809192680000002806624211784083356_);" d="M135.22,183.71v65.93
				c0,2.38-1.93,4.32-4.32,4.32H47.33c-2.38,0-4.31-1.93-4.31-4.32v-65.93c0-2.38,1.93-4.31,4.31-4.31h83.57
				C133.28,179.4,135.22,181.33,135.22,183.71z"/>
			<path class="st6" d="M82.01,190.81H50.91c-0.91,0-1.64-0.74-1.64-1.64l0,0c0-0.91,0.74-1.64,1.64-1.64h31.09
				c0.91,0,1.64,0.74,1.64,1.64l0,0C83.65,190.07,82.92,190.81,82.01,190.81z"/>
			<path class="st7" d="M82.01,201.93H50.91c-0.91,0-1.64-0.74-1.64-1.64l0,0c0-0.91,0.74-1.64,1.64-1.64h31.09
				c0.91,0,1.64,0.74,1.64,1.64l0,0C83.65,201.19,82.92,201.93,82.01,201.93z"/>
			<path class="st6" d="M92.42,213.05h-41.5c-0.91,0-1.64-0.74-1.64-1.64l0,0c0-0.91,0.74-1.64,1.64-1.64h41.5
				c0.91,0,1.64,0.74,1.64,1.64l0,0C94.06,212.31,93.32,213.05,92.42,213.05z"/>
			<path class="st6" d="M92.42,244.19h-41.5c-0.91,0-1.64-0.74-1.64-1.64l0,0c0-0.91,0.74-1.64,1.64-1.64h41.5
				c0.91,0,1.64,0.74,1.64,1.64l0,0C94.06,243.45,93.32,244.19,92.42,244.19z"/>
			<path class="st7" d="M122.61,244.19h-20.94c-0.91,0-1.64-0.74-1.64-1.64l0,0c0-0.91,0.74-1.64,1.64-1.64h20.94
				c0.91,0,1.64,0.74,1.64,1.64l0,0C124.25,243.45,123.52,244.19,122.61,244.19z"/>
			<g>
				<path class="st8" d="M73.02,220.54v4.73c0,0.38,0.31,0.69,0.69,0.69h2.62c0.38,0,0.69-0.31,0.69-0.69v-4.73
					c0-0.38,0.31-0.69,0.69-0.69h0.25c0.38,0,0.69,0.31,0.69,0.69v12.86c0,0.38-0.31,0.69-0.69,0.69H77.7
					c-0.38,0-0.69-0.31-0.69-0.69v-5.28c0-0.38-0.31-0.69-0.69-0.69h-2.62c-0.38,0-0.69,0.31-0.69,0.69v5.28
					c0,0.38-0.31,0.69-0.69,0.69h-0.25c-0.38,0-0.69-0.31-0.69-0.69v-12.86c0-0.38,0.31-0.69,0.69-0.69h0.25
					C72.71,219.86,73.02,220.17,73.02,220.54z"/>
				<path class="st8" d="M82.15,221.32h-1.22c-0.38,0-0.69-0.31-0.69-0.69v-0.09c0-0.38,0.31-0.69,0.69-0.69h5.45
					c0.38,0,0.69,0.31,0.69,0.69v0.09c0,0.38-0.31,0.69-0.69,0.69h-1.22c-0.38,0-0.69,0.31-0.69,0.69v11.41
					c0,0.38-0.31,0.69-0.69,0.69h-0.25c-0.38,0-0.69-0.31-0.69-0.69V222C82.84,221.62,82.53,221.32,82.15,221.32z"/>
				<path class="st8" d="M97.18,227.97c-0.11-1.88-0.21-3.97-0.15-5.58h-0.08c-0.32,1.58-0.7,3.27-1.14,4.94l-1.75,6.67h-1.04
					l-1.67-6.4c-0.47-1.82-0.89-3.57-1.16-5.22h-0.06c0,1.67-0.09,3.65-0.17,5.68l-0.24,5.36c-0.02,0.37-0.32,0.65-0.69,0.65h-0.07
					c-0.4,0-0.71-0.33-0.69-0.73l0.76-12.86c0.02-0.36,0.32-0.65,0.69-0.65h0.57c0.31,0,0.59,0.21,0.66,0.52l1.54,5.99
					c0.49,1.88,0.84,3.27,1.14,4.9h0.06c0.27-1.63,0.59-2.98,1.06-4.9l1.48-5.98c0.08-0.31,0.35-0.52,0.67-0.52h0.63
					c0.36,0,0.66,0.28,0.69,0.65l0.74,12.86c0.02,0.39-0.29,0.73-0.69,0.73h-0.14c-0.37,0-0.67-0.29-0.69-0.65L97.18,227.97z"/>
				<path class="st8" d="M101.89,219.86h0.25c0.38,0,0.69,0.31,0.69,0.69v11.49c0,0.38,0.31,0.69,0.69,0.69h2.64
					c0.38,0,0.69,0.31,0.69,0.69l0,0c0,0.38-0.31,0.69-0.69,0.69h-4.27c-0.38,0-0.69-0.31-0.69-0.69v-12.86
					C101.21,220.17,101.51,219.86,101.89,219.86z"/>
			</g>
			
				<radialGradient id="SVGID_00000058583156660225468370000016663399102083903646_" cx="122.427" cy="242.5473" r="8.8144" gradientUnits="userSpaceOnUse">
				<stop  offset="0" style="stop-color:#FFFFFF"/>
				<stop  offset="1" style="stop-color:#000000"/>
			</radialGradient>
			<circle style="fill:url(#SVGID_00000058583156660225468370000016663399102083903646_);" cx="122.43" cy="242.55" r="8.81"/>
		</g>
		<g>
			<path class="st2" d="M135.22,183.71v29.12H88.03c-1.99,0-3.61-1.62-3.61-3.61V179.4h46.48
				C133.28,179.4,135.22,181.33,135.22,183.71z"/>
			
				<linearGradient id="SVGID_00000172415089470041882680000016940270876544843962_" gradientUnits="userSpaceOnUse" x1="171.2527" y1="70.1461" x2="171.2527" y2="182.1453">
				<stop  offset="0" style="stop-color:#3E84FF"/>
				<stop  offset="1" style="stop-color:#7440FF"/>
			</linearGradient>
			<path style="fill:url(#SVGID_00000172415089470041882680000016940270876544843962_);" d="M251.98,106.91H90.52v-3.54
				c0-1.67,1.36-3.03,3.03-3.03h155.4c1.67,0,3.03,1.36,3.03,3.03V106.91z"/>
			<path class="st11" d="M248.38,206.72H94.13c-1.99,0-3.6-1.61-3.6-3.6v-96.21h161.46v96.21
				C251.98,205.11,250.37,206.72,248.38,206.72z"/>
			<g>
				<path class="st7" d="M245.04,103.63c0,0.63-0.51,1.14-1.14,1.14c-0.63,0-1.14-0.51-1.14-1.14c0-0.63,0.51-1.14,1.14-1.14
					C244.53,102.48,245.04,103,245.04,103.63z"/>
				<path class="st7" d="M238.07,103.63c0,0.63-0.51,1.14-1.14,1.14c-0.63,0-1.14-0.51-1.14-1.14c0-0.63,0.51-1.14,1.14-1.14
					C237.56,102.48,238.07,103,238.07,103.63z"/>
				<path class="st7" d="M231.1,103.63c0,0.63-0.51,1.14-1.14,1.14c-0.63,0-1.14-0.51-1.14-1.14c0-0.63,0.51-1.14,1.14-1.14
					C230.59,102.48,231.1,103,231.1,103.63z"/>
			</g>
			<path class="st8" d="M189.45,119.29h-82.63c-0.91,0-1.64-0.74-1.64-1.64l0,0c0-0.91,0.74-1.64,1.64-1.64h82.63
				c0.91,0,1.64,0.74,1.64,1.64l0,0C191.09,118.56,190.35,119.29,189.45,119.29z"/>
			<path class="st8" d="M189.45,129.65h-82.63c-0.91,0-1.64-0.74-1.64-1.64l0,0c0-0.91,0.74-1.64,1.64-1.64h82.63
				c0.91,0,1.64,0.74,1.64,1.64l0,0C191.09,128.92,190.35,129.65,189.45,129.65z"/>
			<path class="st6" d="M144.85,140.01h-38.03c-0.91,0-1.64-0.74-1.64-1.64v0c0-0.91,0.74-1.64,1.64-1.64h38.03
				c0.91,0,1.64,0.74,1.64,1.64v0C146.49,139.28,145.76,140.01,144.85,140.01z"/>
			<path class="st6" d="M189.45,181.04h-82.63c-0.91,0-1.64-0.74-1.64-1.64l0,0c0-0.91,0.74-1.64,1.64-1.64h82.63
				c0.91,0,1.64,0.74,1.64,1.64l0,0C191.09,180.3,190.35,181.04,189.45,181.04z"/>
			<path class="st6" d="M144.85,191.4h-38.03c-0.91,0-1.64-0.74-1.64-1.64l0,0c0-0.91,0.74-1.64,1.64-1.64h38.03
				c0.91,0,1.64,0.74,1.64,1.64l0,0C146.49,190.66,145.76,191.4,144.85,191.4z"/>
			<g>
				<path class="st6" d="M223.02,126.12c-7.66,0-13.89,6.23-13.89,13.89c0,7.66,6.23,13.89,13.89,13.89
					c7.66,0,13.89-6.23,13.89-13.89C236.91,132.35,230.68,126.12,223.02,126.12z M223.02,151.54c-6.36,0-11.53-5.17-11.53-11.53
					c0-6.36,5.17-11.53,11.53-11.53c6.36,0,11.53,5.17,11.53,11.53C234.55,146.37,229.37,151.54,223.02,151.54z"/>
				<path class="st6" d="M228.78,143.15c-3.18,3.18-8.35,3.18-11.53,0c-0.33-0.33-0.85-0.33-1.18,0c-0.33,0.33-0.33,0.85,0,1.18
					c1.92,1.92,4.43,2.87,6.95,2.87c2.52,0,5.03-0.96,6.95-2.87c0.33-0.33,0.33-0.85,0-1.18
					C229.64,142.82,229.11,142.82,228.78,143.15z"/>
				<path class="st6" d="M218.02,139.25c0.77,0,1.39-0.62,1.39-1.39c0-0.77-0.62-1.39-1.39-1.39s-1.39,0.62-1.39,1.39
					C216.64,138.63,217.26,139.25,218.02,139.25z"/>
				<path class="st6" d="M228.01,139.25c0.77,0,1.39-0.62,1.39-1.39c0-0.77-0.62-1.39-1.39-1.39c-0.77,0-1.39,0.62-1.39,1.39
					C226.62,138.63,227.24,139.25,228.01,139.25z"/>
			</g>
			<g>
				<g>
					<g>
						
							<linearGradient id="SVGID_00000030448753778886477700000006270674821231197858_" gradientUnits="userSpaceOnUse" x1="134.9569" y1="129.3239" x2="93.265" y2="187.44">
							<stop  offset="0" style="stop-color:#3E84FF"/>
							<stop  offset="1" style="stop-color:#7440FF"/>
						</linearGradient>
						<path style="fill:url(#SVGID_00000030448753778886477700000006270674821231197858_);" d="M112.64,169.41
							c-0.35,0-0.69-0.14-0.96-0.42l-6.11-6.54c-0.53-0.57-0.53-1.48,0-2.05l6.21-6.65c0.53-0.57,1.39-0.57,1.91,0
							c0.53,0.57,0.53,1.48,0,2.05l-5.26,5.62l5.15,5.51c0.53,0.57,0.53,1.48,0,2.05C113.33,169.27,112.99,169.41,112.64,169.41z"/>
					</g>
					<g>
						
							<linearGradient id="SVGID_00000061445969262698949920000012528445919576326073_" gradientUnits="userSpaceOnUse" x1="148.7562" y1="139.2233" x2="107.0643" y2="197.3394">
							<stop  offset="0" style="stop-color:#3E84FF"/>
							<stop  offset="1" style="stop-color:#7440FF"/>
						</linearGradient>
						<path style="fill:url(#SVGID_00000061445969262698949920000012528445919576326073_);" d="M132.21,169.41
							c-0.35,0-0.69-0.14-0.96-0.42c-0.53-0.57-0.53-1.48,0-2.05l5.15-5.51l-5.26-5.62c-0.53-0.57-0.53-1.48,0-2.05
							c0.53-0.57,1.39-0.57,1.91,0l6.21,6.65c0.25,0.27,0.4,0.64,0.4,1.02s-0.14,0.75-0.4,1.02l-6.11,6.54
							C132.91,169.27,132.56,169.41,132.21,169.41z"/>
					</g>
				</g>
				<g>
					
						<linearGradient id="SVGID_00000146478614324061184230000010443003513669198749_" gradientUnits="userSpaceOnUse" x1="142.0586" y1="134.4187" x2="100.3667" y2="192.5348">
						<stop  offset="0" style="stop-color:#3E84FF"/>
						<stop  offset="1" style="stop-color:#7440FF"/>
					</linearGradient>
					<path style="fill:url(#SVGID_00000146478614324061184230000010443003513669198749_);" d="M119.39,171.2
						c-0.17,0-0.34-0.03-0.51-0.11c-0.69-0.3-1.02-1.15-0.74-1.89l6.06-15.94c0.28-0.74,1.07-1.1,1.76-0.8
						c0.69,0.3,1.02,1.15,0.74,1.89l-6.06,15.94C120.43,170.86,119.93,171.2,119.39,171.2z"/>
				</g>
			</g>
			<g>
				<path class="st6" d="M244.47,165.36h-42.92c-2.14,0-3.89-1.74-3.89-3.89v-42.92c0-2.14,1.74-3.89,3.89-3.89h42.92
					c2.14,0,3.89,1.74,3.89,3.89v42.92C248.36,163.61,246.62,165.36,244.47,165.36z M201.56,117.02c-0.84,0-1.53,0.69-1.53,1.53
					v42.92c0,0.84,0.69,1.53,1.53,1.53h42.92c0.84,0,1.53-0.69,1.53-1.53v-42.92c0-0.84-0.69-1.53-1.53-1.53H201.56z"/>
			</g>
			
				<linearGradient id="SVGID_00000021115264095206388470000007464107168726074770_" gradientUnits="userSpaceOnUse" x1="162.4358" y1="153.9032" x2="182.0052" y2="153.9032">
				<stop  offset="0" style="stop-color:#3E84FF"/>
				<stop  offset="1" style="stop-color:#7440FF"/>
			</linearGradient>
			<path style="fill:url(#SVGID_00000021115264095206388470000007464107168726074770_);" d="M182.01,154.57v-1.33
				c0-0.51-0.41-0.92-0.92-0.92h-2.18c-0.17-0.73-0.46-1.41-0.84-2.03l1.54-1.54c0.36-0.36,0.36-0.94,0-1.29l-0.94-0.94
				c-0.36-0.36-0.94-0.36-1.29,0l-1.54,1.54c-0.62-0.38-1.3-0.67-2.03-0.84v-2.18c0-0.51-0.41-0.92-0.92-0.92h-1.33
				c-0.51,0-0.91,0.41-0.91,0.92v2.18c-0.73,0.17-1.41,0.46-2.03,0.84l-1.54-1.54c-0.36-0.36-0.94-0.36-1.29,0l-0.94,0.94
				c-0.36,0.36-0.36,0.94,0,1.29l1.54,1.54c-0.38,0.62-0.67,1.3-0.84,2.03h-2.18c-0.51,0-0.92,0.41-0.92,0.92v1.33
				c0,0.51,0.41,0.91,0.92,0.91h2.18c0.17,0.73,0.46,1.41,0.84,2.03l-1.54,1.54c-0.36,0.36-0.36,0.94,0,1.29l0.94,0.94
				c0.36,0.36,0.94,0.36,1.29,0l1.54-1.54c0.62,0.38,1.3,0.67,2.03,0.84v2.18c0,0.51,0.41,0.92,0.91,0.92h1.33
				c0.51,0,0.92-0.41,0.92-0.92v-2.18c0.73-0.17,1.41-0.46,2.03-0.84l1.54,1.54c0.36,0.36,0.94,0.36,1.29,0l0.94-0.94
				c0.36-0.36,0.36-0.94,0-1.29l-1.54-1.54c0.38-0.62,0.67-1.3,0.84-2.03h2.18C181.6,155.48,182.01,155.08,182.01,154.57z
				 M172.86,157.62c-2.58,0.43-4.79-1.78-4.36-4.36c0.26-1.56,1.52-2.82,3.08-3.08c2.58-0.43,4.79,1.78,4.36,4.36
				C175.68,156.11,174.42,157.37,172.86,157.62z"/>
		</g>
		<g>
			<g>
				
					<linearGradient id="SVGID_00000163040459978597222550000000133235510020813482_" gradientUnits="userSpaceOnUse" x1="345.3733" y1="393.5054" x2="344.5327" y2="373.3313">
					<stop  offset="0" style="stop-color:#3E84FF"/>
					<stop  offset="1" style="stop-color:#7440FF"/>
				</linearGradient>
				<path style="fill:url(#SVGID_00000163040459978597222550000000133235510020813482_);" d="M330.5,392.69l24.76-1.39
					c0,0,9.86-0.12,1.27-5.18c-1.52-0.89-2.86-1.89-4.06-2.92c-3.89-3.38-6.16-7.19-7.18-9.19l-4.86,1.28l-8.5,2.24
					c-0.08,0.02-0.15,0.04-0.22,0.05C331.1,382.63,330.5,392.69,330.5,392.69z"/>
				<path class="st17" d="M363.48,395.09c0,0-0.5-8.21-6.95-8.97s-7.18,5.51-7.18,5.51l-18.85-1.06l-0.5,4.52H363.48z"/>
				<path class="st17" d="M340.43,375.29c0.75,2.46,2.87,8.04,6.87,9.69c1.94-1.55,3.93-1.82,5.17-1.78
					c-3.89-3.38-6.16-7.19-7.18-9.19L340.43,375.29z"/>
			</g>
			
				<linearGradient id="SVGID_00000007401322662948197810000000361581692285170567_" gradientUnits="userSpaceOnUse" x1="322.356" y1="259.421" x2="316.6707" y2="353.4164">
				<stop  offset="0" style="stop-color:#2B2B2B"/>
				<stop  offset="1" style="stop-color:#111111"/>
			</linearGradient>
			<path style="fill:url(#SVGID_00000007401322662948197810000000361581692285170567_);" d="M346.08,372.16l-16.58,1.77
				c0,0-6.51-51.99-12.38-73.47c-1.89,4.43-5.71,20.43-9.27,36.38c-4.15,18.61-7.96,37.16-7.96,37.16s-9.5,1.07-14.81-3.23
				c1.63-29.66,13.12-88.85,14.62-97.51c0.01,0.07,0.03,0.14,0.05,0.21c0.11,0.4,0.22,0.72,0.37,0.97c0.08,0.14,0.18,0.28,0.31,0.42
				c0,0,0.01,0.01,0.02,0.02c1.37,1.5,5.49,3.15,11.25,3.34c6.2,0.19,14.29-1.31,22.91-6.56c0.2-0.4,0.22-1.36,0.11-2.73
				c0.29,0.28,0.84,3.77,1.55,9.3C339.52,303.62,346.08,372.16,346.08,372.16z"/>
			
				<linearGradient id="SVGID_00000107568123479405908590000012329804636887014552_" gradientUnits="userSpaceOnUse" x1="288.7767" y1="259.3939" x2="296.6098" y2="227.5565">
				<stop  offset="0" style="stop-color:#3E84FF"/>
				<stop  offset="1" style="stop-color:#7440FF"/>
			</linearGradient>
			<path style="fill:url(#SVGID_00000107568123479405908590000012329804636887014552_);" d="M299.52,242.98l-1.16,4.53l-0.08,0.31
				l-0.28,1.07v0.01c0,0-2.14,0.16-4.98-0.75c-1.36-0.44-2.88-1.11-4.4-2.17c-0.38-0.27-0.75-0.55-1.13-0.86
				c0.52-6.11,2.52-16.9,3.17-20.33c0.13-0.69,0.21-1.08,0.21-1.08L299.52,242.98z"/>
			
				<linearGradient id="SVGID_00000023270573179795458010000004030551514056077476_" gradientUnits="userSpaceOnUse" x1="295.393" y1="241.5576" x2="283.454" y2="275.6692">
				<stop  offset="0" style="stop-color:#F78B7C"/>
				<stop  offset="1" style="stop-color:#FFB7A9"/>
			</linearGradient>
			<path style="fill:url(#SVGID_00000023270573179795458010000004030551514056077476_);" d="M299.89,248.28
				c0,0-1.24,5.47-2.82,10.53c-1.13,3.57-2.42,6.95-3.57,8.04c-2.8,2.65-10,7.01-10,7.01l-4.17-8.62l6.16-5.4l2.42-10.79l0.7-3.08
				c4.7,3.27,9.38,2.92,9.38,2.92l0.28-1.08L299.89,248.28z"/>
			
				<linearGradient id="SVGID_00000046315859114546067800000006643577981477432200_" gradientUnits="userSpaceOnUse" x1="302.1845" y1="202.7195" x2="318.356" y2="267.9106">
				<stop  offset="0" style="stop-color:#3E84FF"/>
				<stop  offset="1" style="stop-color:#7440FF"/>
			</linearGradient>
			<path style="fill:url(#SVGID_00000046315859114546067800000006643577981477432200_);" d="M334.61,271.65
				c-8.62,5.25-16.71,6.76-22.91,6.56c-5.78-0.18-9.92-1.85-11.27-3.36c-0.13-0.14-0.24-0.28-0.31-0.42
				c-0.14-0.25-0.26-0.58-0.37-0.97c-0.02-0.07-0.04-0.14-0.05-0.21c-0.45-1.91-0.52-5.13-0.5-8.53c0-0.52,0.01-1.04,0.01-1.56
				c0.02-1.41,0.04-2.82,0.05-4.16v-0.02c0.02-1.77,0.01-3.39-0.07-4.69c-0.03-0.58-0.08-1.09-0.14-1.52
				c-0.03-0.16-0.05-0.31-0.08-0.45c-0.01-0.05-0.02-0.1-0.04-0.15c-0.17-0.75-0.5-1.89-0.95-3.28v-0.01
				c-0.4-1.28-0.9-2.77-1.44-4.39c-0.16-0.47-0.32-0.96-0.48-1.45c-0.49-1.47-1.01-3.02-1.52-4.58c-0.4-1.22-0.8-2.45-1.19-3.65
				c-0.15-0.49-0.31-0.97-0.45-1.45c-1.01-3.27-1.86-6.27-2.22-8.34c-0.01-0.09-0.03-0.17-0.04-0.25c-0.04-0.22-0.06-0.43-0.09-0.63
				c0.09-0.15,0.19-0.3,0.29-0.45c0.07-0.11,0.14-0.21,0.21-0.31c1.84-2.64,4.35-4.98,6.61-6.8c0.65-0.52,1.28-1,1.86-1.42
				c0.47-0.35,0.91-0.66,1.32-0.94l0.04-0.02l2.66-1.52c3.01-0.5,5.81-0.7,8.34-0.71c3.46-0.02,6.39,0.31,8.58,0.68
				c2.78,0.47,4.39,1,4.39,1l0.14,1.72l0.12,1.53l0.7,8.7l0.12,1.53l0.05,0.68c0,0,0,0.01,0.01,0.02c0.08,0.31,0.84,3.35,1.89,7.71
				c0.12,0.48,0.24,0.97,0.36,1.48c0.61,2.53,1.28,5.41,1.97,8.4c0.11,0.49,0.22,0.98,0.33,1.47c0.64,2.81,1.27,5.68,1.84,8.44
				c0.1,0.5,0.2,1,0.31,1.49c0.64,3.14,1.18,6.08,1.55,8.5c0.08,0.52,0.15,1.03,0.22,1.5c0.11,0.77,0.18,1.47,0.24,2.09
				C334.83,270.3,334.81,271.25,334.61,271.65z"/>
			<g class="st22">
				<path class="st2" d="M325.14,216.92l-34.45,8.12c-0.01-0.09-0.03-0.17-0.04-0.25c-0.04-0.22-0.06-0.43-0.09-0.63
					c0.09-0.15,0.19-0.3,0.29-0.45c0.07-0.11,0.14-0.21,0.21-0.31l33.95-8L325.14,216.92z"/>
				<path class="st2" d="M325.97,227.14l-32.6,7.69c-0.15-0.49-0.31-0.97-0.45-1.45l32.93-7.76L325.97,227.14z"/>
				<path class="st2" d="M328.27,237.03l-31.71,7.48c-0.16-0.47-0.32-0.96-0.48-1.45l31.84-7.51
					C328.03,236.03,328.15,236.52,328.27,237.03z"/>
				<path class="st2" d="M330.57,246.9l-31.37,7.39c-0.03-0.58-0.08-1.09-0.14-1.52l31.18-7.35
					C330.35,245.92,330.46,246.41,330.57,246.9z"/>
				<path class="st2" d="M332.72,256.83l-33.51,7.9c0-0.52,0.01-1.04,0.01-1.56l33.19-7.82
					C332.51,255.84,332.61,256.34,332.72,256.83z"/>
				<path class="st2" d="M334.49,266.83l-34.05,8.02c-0.13-0.14-0.24-0.28-0.31-0.42c-0.14-0.25-0.26-0.58-0.37-0.97l34.51-8.14
					C334.35,265.85,334.42,266.36,334.49,266.83z"/>
			</g>
			<path class="st2" d="M320.49,212.67c-1.61,4.49-5.14,10.76-12.37,11.04c-8.64,0.34-10.19-4.72-10.44-7.11
				c0.65-0.52,1.28-1,1.86-1.42c0.47-0.35,0.91-0.66,1.32-0.94l0.04-0.02l2.66-1.52c3.01-0.5,5.81-0.7,8.34-0.71
				C315.36,211.97,318.29,212.3,320.49,212.67z"/>
			<g>
				
					<linearGradient id="SVGID_00000025441077268310546150000010631343913818909848_" gradientUnits="userSpaceOnUse" x1="301.3633" y1="201.1646" x2="298.1417" y2="218.0308">
					<stop  offset="0" style="stop-color:#F78B7C"/>
					<stop  offset="1" style="stop-color:#FFB7A9"/>
				</linearGradient>
				<path style="fill:url(#SVGID_00000025441077268310546150000010631343913818909848_);" d="M308.12,219.09
					c-0.68,0.65-1.54,1.04-2.54,0.86c-1.85-0.32-3.01-1.59-3.66-2.59c-0.41-0.63-0.62-1.17-0.68-1.33
					c-0.01-0.03-0.02-0.05-0.02-0.05s-0.43,0.24-1.5,0.05c-0.05-0.01-0.11-0.02-0.16-0.03c-0.04-0.01-0.05-0.01-0.05-0.01
					c-0.81-0.17-1.96-0.57-3.5-1.44c-2.28-1.28-4.09-3.23-5.45-5.12c-0.3-0.42-0.58-0.84-0.84-1.24c-0.29-0.46-0.56-0.91-0.8-1.33
					c5.18-0.52,8.6-4.2,10.12-8.6c0,0,2.84,4.68,3.47,4.68c0.63,0,1.14-4.42,3.03-4.48c0.32-0.01,0.6,0.06,0.83,0.21
					c1.1,0.7,1.09,3.1,0.19,5.6c-0.57,1.58,1.77,2.91,2.28,3.04c0.03,0.01,0.07-0.02,0.13-0.08c0.13,1.66,0.42,3.48,0.68,4.83
					c0.14,0.71,0.28,1.3,0.38,1.65C310.36,214.81,309.65,217.64,308.12,219.09z"/>
				<path class="st24" d="M294.55,201.55c-0.1,0.22-1.77,3.6-5.71,5.17c-0.17-0.29-0.31-0.58-0.45-0.84
					C291.64,204.37,294.38,201.72,294.55,201.55z"/>
			</g>
			
				<linearGradient id="SVGID_00000181784838939374684960000006424560999579335604_" gradientUnits="userSpaceOnUse" x1="295.3627" y1="186.9932" x2="298.7738" y2="205.3755">
				<stop  offset="0" style="stop-color:#2B2B2B"/>
				<stop  offset="1" style="stop-color:#111111"/>
			</linearGradient>
			<path style="fill:url(#SVGID_00000181784838939374684960000006424560999579335604_);" d="M312.74,197
				c-0.8,5-3.12,9.59-3.77,10.22c-0.06,0.06-0.1,0.08-0.13,0.08c-0.51-0.13-2.85-1.46-2.28-3.04c1.08-3.01,0.88-5.87-1.01-5.81
				c-1.89,0.06-2.4,4.48-3.03,4.48c-0.63,0-3.47-4.68-3.47-4.68c-1.53,4.4-4.94,8.08-10.12,8.6c-0.18,0.02-0.37,0.04-0.55,0.05
				c0.17-0.06,0.32-0.12,0.48-0.18c3.94-1.57,5.61-4.95,5.71-5.17c-0.17,0.17-2.91,2.82-6.16,4.33c-1.57,0.73-3.26,1.19-4.83,0.97
				c-0.12-0.15-0.24-0.31-0.34-0.48c-4.56-6.79-1.28-20.94,5.11-23.65c0,0-1.66-0.48-3.65-1.95c2.84,0.62,10.09-1.89,12.61-1.56
				c2.51,0.33,3.31,2.32,3.31,2.32s3.17-2.86,6.77-1.66c-1.77-0.06-3.1,2.08-3.1,2.08s6.76,1.52,8.4,8.66
				C313.15,192.63,313.09,194.85,312.74,197z"/>
			<path class="st2" d="M308.12,219.09c-0.68,0.65-1.54,1.04-2.54,0.86c-1.85-0.32-3.01-1.59-3.66-2.59
				c-0.41-0.63-0.62-1.17-0.68-1.33c1.24-0.29,2.91-1.31,4.19-4.49v-0.01c0-0.01,0.01-0.01,0.01-0.01
				C306.63,212.39,306.43,217.72,308.12,219.09z"/>
			<g>
				<path class="st2" d="M288.85,206.72c-0.17-0.29-0.31-0.58-0.45-0.84c3.24-1.51,5.98-4.16,6.16-4.33
					C294.45,201.77,292.78,205.16,288.85,206.72z"/>
				<path class="st2" d="M306.37,198.66c-3,0.99-1.76,5.82-3.38,6.07c-2.02,0.32-3-2.69-3-2.69s-1.27,2.53-5.12,4.68
					c-1.71,0.96-3.59,1.33-5.16,1.46c-0.29-0.46-0.56-0.91-0.8-1.33c5.18-0.52,8.6-4.2,10.12-8.6c0,0,2.84,4.68,3.47,4.68
					c0.63,0,1.14-4.42,3.03-4.48C305.87,198.43,306.14,198.51,306.37,198.66z"/>
			</g>
			<path class="st3" d="M305.44,211.53c-1.28,3.18-2.94,4.2-4.19,4.49c-0.01-0.03-0.02-0.05-0.02-0.05s-0.47,0.27-1.66,0.02
				c-0.04-0.01-0.05-0.01-0.05-0.01c-0.81-0.17-1.96-0.57-3.5-1.44c-2.28-1.28-4.09-3.23-5.45-5.12c0.38-0.04,0.93,0.08,1.62,0.62
				c1.56,1.23,2.98,4.07,6.54,4.83C302.25,215.64,304.53,212.87,305.44,211.53z"/>
			<path class="st2" d="M305.57,200.5c0,0-0.61,1.77-0.34,2.34C305.51,203.4,307.43,201.66,305.57,200.5z"/>
			<path class="st2" d="M312.74,197c-0.8,5-3.12,9.59-3.77,10.22c-0.06,0.06-0.1,0.08-0.13,0.08c-0.51-0.13-2.85-1.46-2.28-3.04
				c1.08-3.01,0.88-5.87-1.01-5.81c-1.89,0.06-2.4,4.48-3.03,4.48c-0.63,0-3.47-4.68-3.47-4.68c-1.53,4.4-4.94,8.08-10.12,8.6
				c-0.18,0.02-0.37,0.04-0.55,0.05c0.17-0.06,0.32-0.12,0.48-0.18c3.94-1.57,5.61-4.95,5.71-5.17c-0.17,0.17-2.91,2.82-6.16,4.33
				c-1.57,0.73-3.26,1.19-4.83,0.97c-0.12-0.15-0.24-0.31-0.34-0.48c3.51-2.36,12.27-8.9,12.12-15.41c1.7,3.22,1.33,7.29,1.33,7.29
				s1.6-4.26,1.32-7.87c2.56,3.6,3.25,6.73,3.25,6.73s0.35-3.6,4.52-4.27c4.17-0.66,4.35,5.4,4.35,5.4s1.44-2.18-0.17-6.06
				C311.03,192.83,311.98,194.74,312.74,197z"/>
			<path class="st26" d="M307,222.07c-5.15,0.65-6.77-4.21-7.27-6.04c1.07,0.19,1.5-0.05,1.5-0.05s0.01,0.02,0.02,0.05
				c0.06,0.17,0.27,0.7,0.68,1.33c0.65,1.01,1.8,2.27,3.66,2.59c1,0.18,1.85-0.21,2.54-0.86c1.53-1.46,2.24-4.29,1.92-5.39
				c-0.11-0.35-0.24-0.94-0.38-1.65c0.77-0.04,1.53-0.05,2.25-0.06C312.1,216.01,311.49,221.5,307,222.07z"/>
			<path class="st2" d="M299.28,258.99c0.03-2.84-0.01-5.31-0.29-6.66c-0.16-0.75-0.51-1.94-0.98-3.43c0,0-2.14,0.16-4.98-0.75
				c0.45-1.64,0.4-4.85,0.49-8.86c0.04-1.62-0.13-4.03-0.49-5.49c1.92,4.33,4.45,9.24,5.34,13.71
				C299.31,252.31,299.64,256.58,299.28,258.99z"/>
			<path class="st2" d="M334.61,271.65c-8.62,5.25-16.71,6.76-22.91,6.56c7.36-3.08,5.21-10.51-1.59-11.87
				c6.83-5.05,12.34-9.54,11.23-25.89c-0.57-8.36,0.63-15.29,0.63-15.29l4.05,2.68C326.31,228.99,336.23,268.42,334.61,271.65z"/>
			
				<linearGradient id="SVGID_00000103980726768091198060000000886931844338814617_" gradientUnits="userSpaceOnUse" x1="337.4963" y1="248.2019" x2="323.5986" y2="223.6914">
				<stop  offset="0" style="stop-color:#3E84FF"/>
				<stop  offset="1" style="stop-color:#7440FF"/>
			</linearGradient>
			<path style="fill:url(#SVGID_00000103980726768091198060000000886931844338814617_);" d="M334.79,233.38
				c-0.02,0.14-0.06,0.28-0.12,0.42c-0.37,0.8-1.49,1.59-2.88,2.31c-2.45,1.27-5.73,2.31-7.18,2.74c-0.46,0.14-0.73,0.21-0.73,0.21
				s-4.09-8.12-4.82-15.21c-0.47-4.5,0.42-8.58,4.59-9.9c0.38-0.12,0.8-0.22,1.24-0.29c0,0,5.73,3.18,9.72,18.96
				C334.66,232.88,334.73,233.13,334.79,233.38z"/>
			
				<linearGradient id="SVGID_00000108987741027144027860000011139498908680783243_" gradientUnits="userSpaceOnUse" x1="333.0475" y1="218.8456" x2="311.4436" y2="271.9079">
				<stop  offset="0" style="stop-color:#F78B7C"/>
				<stop  offset="1" style="stop-color:#FFB7A9"/>
			</linearGradient>
			<path style="fill:url(#SVGID_00000108987741027144027860000011139498908680783243_);" d="M338.52,254.73
				c-1.64,3.16-27.79,15.92-27.79,15.92s-2.02,3.79-5.68,4.55c-3.67,0.76-6.44-1.26-8.59-1.39c-2.15-0.13-5.18,2.15-5.18,2.15
				s-0.37,0.02-0.68-0.14c-0.39-0.2-0.68-0.7-0.03-1.89c2.82-5.05,13.22-5.94,13.98-6.31c0.36-0.18,5.61-4.38,11.04-8.76
				c6.05-4.87,12.33-9.96,12.33-9.96l-2.51-7.61l-0.8-2.44c2.26-0.67,9.04-2.85,10.06-5.05c0.26,0.88,0.64,2.16,1.06,3.67
				C337.34,243.33,339.63,252.6,338.52,254.73z"/>
			<path class="st2" d="M335.72,237.47c-3.37,3.15-7.96,3.74-10.31,3.82l-0.8-2.44c2.26-0.67,9.04-2.85,10.06-5.05
				C334.92,234.68,335.3,235.96,335.72,237.47z"/>
			<path class="st2" d="M298.95,252.17c-0.49,1.93-1.14,4.32-1.87,6.64c-3.22-2.02-7.09-6.93-9.16-9.76l0.7-3.08
				c4.7,3.27,9.38,2.92,9.38,2.92C298.44,250.29,298.77,251.42,298.95,252.17z"/>
			<path class="st29" d="M345.6,376.41l-14.11,1.2c-1.3,0.11-2.44-0.85-2.55-2.15l-0.03-0.33c-0.11-1.3,0.85-2.44,2.15-2.55
				l14.11-1.2c1.3-0.11,2.44,0.85,2.55,2.15l0.03,0.33C347.86,375.16,346.89,376.3,345.6,376.41z"/>
			<path class="st29" d="M301.65,375.73c-0.29,1.13-1.32,1.88-2.45,1.88c-0.14,0-0.28-0.01-0.42-0.04
				c-0.08-0.01-0.15-0.03-0.22-0.05l-13.37-3.52l-0.69-0.18c-1.35-0.36-2.15-1.74-1.8-3.09c0.3-1.13,1.32-1.89,2.44-1.89
				c0.21,0,0.43,0.03,0.65,0.09l14.06,3.7C301.2,373,302.01,374.38,301.65,375.73z"/>
			<g>
				
					<linearGradient id="SVGID_00000112617996109485885790000013261555137389200783_" gradientUnits="userSpaceOnUse" x1="285.4266" y1="396.0031" x2="284.5861" y2="375.8289">
					<stop  offset="0" style="stop-color:#3E84FF"/>
					<stop  offset="1" style="stop-color:#7440FF"/>
				</linearGradient>
				<path style="fill:url(#SVGID_00000112617996109485885790000013261555137389200783_);" d="M299.99,392.69l-24.76-1.39
					c0,0-9.86-0.12-1.27-5.18c1.52-0.89,2.86-1.89,4.06-2.92c3.89-3.38,6.16-7.19,7.18-9.19l4.86,1.28l8.5,2.24
					c0.08,0.02,0.15,0.04,0.22,0.05C299.4,382.63,299.99,392.69,299.99,392.69z"/>
				<path class="st17" d="M267.02,395.09c0,0,0.5-8.21,6.95-8.97c6.45-0.76,7.18,5.51,7.18,5.51l18.85-1.06l0.5,4.52H267.02z"/>
				<path class="st17" d="M290.06,375.29c-0.75,2.46-2.87,8.04-6.87,9.69c-1.94-1.55-3.93-1.82-5.17-1.78
					c3.89-3.38,6.16-7.19,7.18-9.19L290.06,375.29z"/>
			</g>
			<path class="st2" d="M334.79,233.38c-0.02,0.14-0.06,0.28-0.12,0.42c-0.37,0.8-1.49,1.59-2.88,2.31
				c-0.03-2.88-0.35-6.98-1.62-11.07c-1.63-5.26-4.8-9.21-6.53-11.08c0.38-0.12,0.8-0.22,1.24-0.29c0,0,5.73,3.18,9.72,18.96
				C334.66,232.88,334.73,233.13,334.79,233.38z"/>
			<path class="st31" d="M328.61,278.23c0,0-0.38,5.49,5.12,6.63"/>
			<line class="st31" x1="331.16" y1="287.07" x2="341.94" y2="368.85"/>
			<line class="st31" x1="314.5" y1="299.45" x2="296.22" y2="368.85"/>
			<path class="st2" d="M317.12,300.46c-1.89,4.43-5.71,20.43-9.27,36.38c-0.11-8.33,0.07-17.29,0.98-24
				C311.11,296.11,317.12,300.46,317.12,300.46z"/>
			<path class="st2" d="M336.27,278.22c-24.28,12.12-35.34-2.67-35.82-3.34c1.37,1.5,5.49,3.15,11.25,3.34
				c6.2,0.19,14.29-1.31,22.91-6.56c0.2-0.4,0.22-1.36,0.11-2.73C335.01,269.21,335.56,272.69,336.27,278.22z"/>
			<path class="st3" d="M315.58,258.86c-1.01,3.9-9.3,10.16-10.76,10.06c-1.66-0.11-9.38,1.86-11.81,3.28
				c-1.9,1.11-2.33,2.88-2.42,3.61c-0.39-0.2-0.68-0.7-0.03-1.89c2.82-5.05,13.22-5.94,13.98-6.31
				C304.9,267.44,310.15,263.24,315.58,258.86z"/>
		</g>
		<g>
			
				<linearGradient id="SVGID_00000014610115860567037540000005136217432487803038_" gradientUnits="userSpaceOnUse" x1="143.4545" y1="248.1159" x2="143.8749" y2="319.9866">
				<stop  offset="0" style="stop-color:#6D5BD8"/>
				<stop  offset="1" style="stop-color:#C7CFFF"/>
			</linearGradient>
			<path style="fill:url(#SVGID_00000014610115860567037540000005136217432487803038_);" d="M160.17,288.42l-1.93-1.35l-1.93-1.36
				c-0.29,0.42-7.26,10.44-14.3,28.99c-6.47,17.06-14.18,44.85-14.18,80.38h4.72C132.55,328.62,159.89,288.82,160.17,288.42z"/>
			
				<linearGradient id="SVGID_00000009590892679645072670000008460750166528746924_" gradientUnits="userSpaceOnUse" x1="216.3514" y1="253.9241" x2="173.061" y2="372.4475">
				<stop  offset="0" style="stop-color:#6D5BD8"/>
				<stop  offset="1" style="stop-color:#C7CFFF"/>
			</linearGradient>
			<path style="fill:url(#SVGID_00000009590892679645072670000008460750166528746924_);" d="M202.37,288.42l-1.93-1.35l-1.93-1.36
				c-0.29,0.42-7.26,10.44-14.3,28.99c-6.47,17.06-14.18,44.85-14.18,80.38h4.72C174.75,328.62,202.09,288.82,202.37,288.42z"/>
			
				<linearGradient id="SVGID_00000162335077064578818460000017853903368953476012_" gradientUnits="userSpaceOnUse" x1="324.9268" y1="270.7733" x2="366.1158" y2="367.8618">
				<stop  offset="0" style="stop-color:#6D5BD8"/>
				<stop  offset="1" style="stop-color:#C7CFFF"/>
			</linearGradient>
			<path style="fill:url(#SVGID_00000162335077064578818460000017853903368953476012_);" d="M337.65,288.42l1.93-1.35l1.93-1.36
				c0.29,0.42,7.26,10.44,14.3,28.99c6.47,17.06,14.18,44.85,14.18,80.38h-4.72C365.27,328.62,337.92,288.82,337.65,288.42z"/>
			
				<linearGradient id="SVGID_00000171713261721984889070000014847958063482877059_" gradientUnits="userSpaceOnUse" x1="311.0668" y1="247.1358" x2="311.4871" y2="319.0064">
				<stop  offset="0" style="stop-color:#6D5BD8"/>
				<stop  offset="1" style="stop-color:#C7CFFF"/>
			</linearGradient>
			<path style="fill:url(#SVGID_00000171713261721984889070000014847958063482877059_);" d="M295.45,288.42l1.93-1.35l1.93-1.36
				c0.29,0.42,7.26,10.44,14.3,28.99c6.47,17.06,14.18,44.85,14.18,80.38h-4.72C323.07,328.62,295.73,288.82,295.45,288.42z"/>
			<g>
				<path class="st36" d="M341.94,286.1c0,0.86-0.35,1.64-0.91,2.21c-0.57,0.57-1.34,0.91-2.21,0.91H127.25
					c-1.72,0-3.12-1.4-3.12-3.12c0-0.86,0.35-1.64,0.91-2.21c0.57-0.57,1.34-0.91,2.2-0.91h211.57
					C340.54,282.98,341.94,284.38,341.94,286.1z"/>
				<path class="st37" d="M379.35,286.1c0,0.86-0.35,1.64-0.91,2.21c-0.57,0.57-1.34,0.91-2.21,0.91h-37.41
					c0.86,0,1.64-0.35,2.21-0.91c0.57-0.57,0.91-1.34,0.91-2.21c0-1.72-1.4-3.12-3.12-3.12h37.41
					C377.96,282.98,379.35,284.38,379.35,286.1z"/>
			</g>
		</g>
		<g>
			<path class="st7" d="M200.44,191.56v68.47h-49.36c-3.91,0-7.07-3.17-7.07-7.07v-54.32c0-3.91,3.17-7.08,7.07-7.08H200.44z"/>
			<path class="st37" d="M200.44,260.03L200.44,260.03v-68.48l0,0c-3.91,0-7.07,3.17-7.07,7.07v54.33
				C193.36,256.87,196.53,260.03,200.44,260.03z"/>
			<path class="st2" d="M175.87,260.03h-17.32l4.29-26.56c0,0,2.03-3.93,6.49-1.39C172.95,234.16,171.25,252.07,175.87,260.03z"/>
			<path class="st36" d="M151.42,274.86l11.42-41.39c0.42-1.51,2.41-1.89,3.32-0.6c1.71,2.42,3.62,6.56,3.07,12.56
				c-0.95,10.43-7.01,30.39-7.01,30.39L151.42,274.86z"/>
			<path class="st38" d="M171.72,273.77h-23.1c-2.54,0-4.6,2.06-4.6,4.6l0,0c0,2.54,2.06,4.6,4.6,4.6h23.1c2.54,0,4.6-2.06,4.6-4.6
				l0,0C176.33,275.83,174.26,273.77,171.72,273.77z"/>
			
				<linearGradient id="SVGID_00000009588468928011768670000010334154456928891777_" gradientUnits="userSpaceOnUse" x1="167.6912" y1="252.0428" x2="163.907" y2="197.1719">
				<stop  offset="0" style="stop-color:#3E84FF"/>
				<stop  offset="1" style="stop-color:#7440FF"/>
			</linearGradient>
			<path style="fill:url(#SVGID_00000009588468928011768670000010334154456928891777_);" d="M169.33,219.86
				c0,3.28-1.73,5.94-3.85,5.94s-3.85-2.66-3.85-5.94s1.73-5.94,3.85-5.94S169.33,216.58,169.33,219.86z"/>
		</g>
		<g>
			<polygon class="st36" points="313.49,279.74 283.69,278.22 283.69,282.98 313.49,282.98 			"/>
			<path class="st37" d="M290.02,282.98h-57.45c-0.67,0-1.26-0.46-1.42-1.12l-9.06-37.34c-0.22-0.92,0.47-1.8,1.42-1.8h57.45
				c0.67,0,1.26,0.46,1.42,1.12l9.06,37.34C291.66,282.09,290.96,282.98,290.02,282.98z"/>
			<path class="st7" d="M288.16,281.22H230.7c-0.67,0-1.26-0.46-1.42-1.11l-9.06-37.34c-0.12-0.48,0.02-0.94,0.31-1.29
				c0.26-0.31,0.66-0.52,1.11-0.52h57.45c0.67,0,1.26,0.46,1.42,1.11l9.06,37.34C289.8,280.34,289.1,281.22,288.16,281.22z"/>
			
				<linearGradient id="SVGID_00000165232930265281810540000011993434560257233559_" gradientUnits="userSpaceOnUse" x1="264.2957" y1="297.6489" x2="246.3631" y2="236.566">
				<stop  offset="0" style="stop-color:#3E84FF"/>
				<stop  offset="1" style="stop-color:#7440FF"/>
			</linearGradient>
			<path style="fill:url(#SVGID_00000165232930265281810540000011993434560257233559_);" d="M257.04,261.72
				c0.75,1.97,0.04,4.07-1.59,4.7c-1.63,0.63-3.57-0.46-4.32-2.43s-0.04-4.07,1.59-4.7C254.35,258.66,256.28,259.75,257.04,261.72z"
				/>
		</g>
		<g>
			
				<radialGradient id="SVGID_00000059287933613161094010000016534185244912667577_" cx="352.7123" cy="142.8044" r="45.3286" gradientTransform="matrix(0.9183 -0.3959 0.3472 0.8053 -7.4037 208.5785)" gradientUnits="userSpaceOnUse">
				<stop  offset="0" style="stop-color:#3E84FF"/>
				<stop  offset="0.3286" style="stop-color:#5469FF;stop-opacity:0.6714"/>
				<stop  offset="0.7569" style="stop-color:#6B4BFF;stop-opacity:0.2431"/>
				<stop  offset="1" style="stop-color:#7440FF;stop-opacity:0"/>
			</radialGradient>
			<path style="fill:url(#SVGID_00000059287933613161094010000016534185244912667577_);" d="M416.32,162.28
				c10.67,24.75-3.18,54.52-30.93,66.48c-27.75,11.96-58.9,1.6-69.57-23.15c-10.67-24.75,3.18-54.52,30.93-66.48
				S405.65,137.53,416.32,162.28z"/>
			
				<linearGradient id="SVGID_00000096765851726461899200000014849524006073908401_" gradientUnits="userSpaceOnUse" x1="338.709" y1="124.0474" x2="378.1269" y2="224.1082">
				<stop  offset="0" style="stop-color:#3E84FF"/>
				<stop  offset="1" style="stop-color:#7440FF"/>
			</linearGradient>
			<path style="fill:url(#SVGID_00000096765851726461899200000014849524006073908401_);" d="M398.66,155.37v43.38
				c0,2.32-1.88,4.2-4.2,4.2h-69.74c-2.32,0-4.2-1.88-4.2-4.2v-43.38c0-2.32,1.88-4.2,4.2-4.2h69.74
				C396.78,151.17,398.66,153.05,398.66,155.37z"/>
			<g>
				<g>
					<path class="st7" d="M344.3,193.6c-2.32,0-4.2-1.89-4.2-4.2v-7.52c0-0.56-0.22-1.09-0.62-1.49l-1.51-1.51
						c-1.01-1.01-1.01-2.64,0-3.65l1.51-1.51c0.4-0.4,0.62-0.93,0.62-1.49v-7.52c0-2.32,1.89-4.2,4.2-4.2v2.1
						c-1.16,0-2.1,0.94-2.1,2.1v7.52c0,1.12-0.44,2.18-1.23,2.97l-1.51,1.51c-0.19,0.19-0.19,0.49,0,0.68l1.51,1.51
						c0.79,0.79,1.23,1.85,1.23,2.97v7.52c0,1.16,0.94,2.1,2.1,2.1V193.6z"/>
				</g>
				<g>
					<path class="st7" d="M374.88,160.51c2.32,0,4.2,1.89,4.2,4.2v7.52c0,0.56,0.22,1.09,0.62,1.49l1.51,1.51
						c1.01,1.01,1.01,2.64,0,3.65l-1.51,1.51c-0.4,0.4-0.62,0.92-0.62,1.49v7.52c0,2.32-1.89,4.2-4.2,4.2v-2.1
						c1.16,0,2.1-0.94,2.1-2.1v-7.52c0-1.12,0.44-2.18,1.23-2.97l1.51-1.51c0.19-0.19,0.19-0.49,0-0.68l-1.51-1.51
						c-0.79-0.79-1.23-1.85-1.23-2.97v-7.52c0-1.16-0.94-2.1-2.1-2.1V160.51z"/>
				</g>
				<path class="st7" d="M369.21,170.82c-1.77-1.77-4.64-1.77-6.41,0l-3.21,3.21l-3.21-3.21c-1.77-1.77-4.64-1.77-6.41,0
					c-1.77,1.77-1.77,4.64,0,6.41l3.21,3.21l6.41,6.41l6.41-6.41l3.21-3.21C370.98,175.46,370.98,172.59,369.21,170.82z"/>
			</g>
		</g>
		<g>
			<path class="st43" d="M309.45,154.91v-2.02c0-0.77-0.62-1.39-1.39-1.39h-3.31c-0.26-1.11-0.7-2.14-1.28-3.08l2.34-2.34
				c0.54-0.54,0.54-1.42,0-1.96l-1.43-1.43c-0.54-0.54-1.42-0.54-1.96,0l-2.34,2.34c-0.94-0.58-1.97-1.02-3.08-1.28v-3.31
				c0-0.77-0.62-1.39-1.39-1.39h-2.02c-0.77,0-1.39,0.62-1.39,1.39v3.31c-1.1,0.26-2.14,0.7-3.08,1.28l-2.34-2.34
				c-0.54-0.54-1.42-0.54-1.96,0l-1.43,1.43c-0.54,0.54-0.54,1.42,0,1.96l2.34,2.34c-0.58,0.94-1.02,1.97-1.28,3.08h-3.31
				c-0.77,0-1.39,0.62-1.39,1.39v2.02c0,0.77,0.62,1.39,1.39,1.39h3.31c0.26,1.11,0.7,2.14,1.28,3.08l-2.34,2.34
				c-0.54,0.54-0.54,1.42,0,1.96l1.43,1.43c0.54,0.54,1.42,0.54,1.96,0l2.34-2.34c0.94,0.58,1.97,1.02,3.08,1.28v3.31
				c0,0.77,0.62,1.39,1.39,1.39h2.02c0.77,0,1.39-0.62,1.39-1.39v-3.31c1.1-0.26,2.14-0.7,3.08-1.28l2.34,2.34
				c0.54,0.54,1.42,0.54,1.96,0l1.43-1.43c0.54-0.54,0.54-1.42,0-1.96l-2.34-2.34c0.58-0.94,1.02-1.97,1.28-3.08h3.31
				C308.83,156.3,309.45,155.68,309.45,154.91z M295.57,159.55c-3.91,0.65-7.27-2.7-6.62-6.62c0.39-2.37,2.3-4.28,4.68-4.68
				c3.91-0.65,7.27,2.7,6.62,6.62C299.86,157.25,297.94,159.16,295.57,159.55z"/>
			<g>
				<path class="st7" d="M265.8,202.1L265.8,202.1c-0.76,0-1.38-0.59-1.47-1.35c-0.67-6.15-5.9-10.95-12.23-10.95
					c-5.24,0-9.72,3.3-11.49,7.92l2.87,0.6l-3.63,2.66l-1.52,1.11h-0.28l-1.09-1.88l-2.15-3.71l2.88,0.6
					c2.07-5.97,7.74-10.26,14.4-10.26c7.85,0,14.33,5.96,15.16,13.59C267.36,201.32,266.69,202.1,265.8,202.1z"/>
				<path class="st7" d="M238.17,206.17L238.17,206.17c0.76,0,1.38,0.59,1.47,1.35c0.67,6.15,5.9,10.95,12.23,10.95
					c5.24,0,9.72-3.3,11.49-7.92l-2.87-0.6l3.63-2.66l1.52-1.11h0.28l1.09,1.88l2.15,3.71l-2.88-0.6
					c-2.07,5.97-7.74,10.26-14.4,10.26c-7.85,0-14.33-5.96-15.16-13.59C236.61,206.95,237.28,206.17,238.17,206.17z"/>
				<polygon class="st7" points="238.35,202.1 238.15,202.24 238.07,202.1 				"/>
			</g>
		</g>
		<path class="st44" d="M381.96,404.16c-0.22,4.65-4.23,8.24-8.89,8.24H127.1c-4.92,0-8.88-4.1-8.65-9.07
			c0.11-2.32,1.17-4.39,2.78-5.86c1.61-1.48,3.78-2.38,6.11-2.38h245.97C378.23,395.09,382.19,399.19,381.96,404.16z"/>
		<g>
			
				<linearGradient id="SVGID_00000091723544736937218970000006754136632916850564_" gradientUnits="userSpaceOnUse" x1="373.4096" y1="221.4206" x2="425.7841" y2="221.4206">
				<stop  offset="0" style="stop-color:#3E84FF"/>
				<stop  offset="1" style="stop-color:#7440FF"/>
			</linearGradient>
			
				<line style="fill:none;stroke:url(#SVGID_00000091723544736937218970000006754136632916850564_);stroke-width:2.9479;stroke-linecap:round;stroke-linejoin:round;stroke-miterlimit:10;" x1="374.88" y1="221.42" x2="424.31" y2="221.42"/>
			<line class="st46" x1="374.88" y1="230.22" x2="406.88" y2="230.22"/>
			<line class="st46" x1="374.88" y1="238.83" x2="406.88" y2="238.83"/>
			
				<radialGradient id="SVGID_00000017501943645849053810000001341308447787344813_" cx="374.8835" cy="230.2214" r="8.8144" gradientUnits="userSpaceOnUse">
				<stop  offset="0" style="stop-color:#FFFFFF"/>
				<stop  offset="1" style="stop-color:#000000"/>
			</radialGradient>
			<circle style="fill:url(#SVGID_00000017501943645849053810000001341308447787344813_);" cx="374.88" cy="230.22" r="8.81"/>
		</g>
		<g>
			<line class="st46" x1="118.32" y1="269.67" x2="68.89" y2="269.67"/>
			
				<linearGradient id="SVGID_00000104677392156637521170000013137214955263588029_" gradientUnits="userSpaceOnUse" x1="84.8542" y1="278.4715" x2="119.7939" y2="278.4715">
				<stop  offset="0" style="stop-color:#3E84FF"/>
				<stop  offset="1" style="stop-color:#7440FF"/>
			</linearGradient>
			
				<line style="fill:none;stroke:url(#SVGID_00000104677392156637521170000013137214955263588029_);stroke-width:2.9479;stroke-linecap:round;stroke-linejoin:round;stroke-miterlimit:10;" x1="118.32" y1="278.47" x2="86.33" y2="278.47"/>
			
				<linearGradient id="SVGID_00000031890980946062296890000005012977663298107549_" gradientUnits="userSpaceOnUse" x1="84.8542" y1="287.0825" x2="119.7939" y2="287.0825">
				<stop  offset="0" style="stop-color:#3E84FF"/>
				<stop  offset="1" style="stop-color:#7440FF"/>
			</linearGradient>
			
				<line style="fill:none;stroke:url(#SVGID_00000031890980946062296890000005012977663298107549_);stroke-width:2.9479;stroke-linecap:round;stroke-linejoin:round;stroke-miterlimit:10;" x1="118.32" y1="287.08" x2="86.33" y2="287.08"/>
			
				<radialGradient id="SVGID_00000130623511182552842570000015069953386031503002_" cx="118.6335" cy="269.5142" r="8.8144" gradientUnits="userSpaceOnUse">
				<stop  offset="0" style="stop-color:#FFFFFF"/>
				<stop  offset="1" style="stop-color:#000000"/>
			</radialGradient>
			<circle style="fill:url(#SVGID_00000130623511182552842570000015069953386031503002_);" cx="118.63" cy="269.51" r="8.81"/>
		</g>
		
			<radialGradient id="SVGID_00000080185359242941316500000014534510510334243736_" cx="182.6865" cy="391.363" r="232.6777" gradientUnits="userSpaceOnUse">
			<stop  offset="0" style="stop-color:#FF00FF"/>
			<stop  offset="1" style="stop-color:#00FFFF;stop-opacity:0"/>
		</radialGradient>
		<path style="fill:url(#SVGID_00000080185359242941316500000014534510510334243736_);" d="M289.57,279.42l-9.06-37.34
			c-0.16-0.65-0.74-1.11-1.42-1.11h-57.45c-0.45,0-0.85,0.21-1.11,0.52l-0.35-0.19l10.58-57.31c0,0,82.98-41.19,99.4,8.09
			c1.03,3.08,28.42,42.76,28.92,45.48C366.62,278.36,289.57,279.42,289.57,279.42z"/>
		<g>
			<path class="st52" d="M154.2,249.86c0,0-15.64,83.05,51.55,92.04c51.02,6.82,106.76-34.08,92.85-61.3"/>
			<path class="st53" d="M178.33,248.19c0,0-21.22,37.62,0,90.68c21.22,53.06,149.9,67.92,126.36-57.32"/>
			
				<radialGradient id="SVGID_00000046301551469344983360000009314304817447115708_" cx="278.4305" cy="322.4656" r="8.8144" gradientUnits="userSpaceOnUse">
				<stop  offset="0" style="stop-color:#FFFFFF"/>
				<stop  offset="1" style="stop-color:#000000"/>
			</radialGradient>
			<circle style="fill:url(#SVGID_00000046301551469344983360000009314304817447115708_);" cx="278.43" cy="322.47" r="8.81"/>
			
				<radialGradient id="SVGID_00000164515705177322839910000009407246075193951154_" cx="208.8416" cy="368.8529" r="8.8144" gradientUnits="userSpaceOnUse">
				<stop  offset="0" style="stop-color:#FFFFFF"/>
				<stop  offset="1" style="stop-color:#000000"/>
			</radialGradient>
			<circle style="fill:url(#SVGID_00000164515705177322839910000009407246075193951154_);" cx="208.84" cy="368.85" r="8.81"/>
		</g>
		<g>
			
				<linearGradient id="SVGID_00000090991400875028592840000014902395343856166030_" gradientUnits="userSpaceOnUse" x1="446.7101" y1="235.0287" x2="427.3802" y2="313.8644">
				<stop  offset="0" style="stop-color:#3E84FF"/>
				<stop  offset="1" style="stop-color:#7440FF"/>
			</linearGradient>
			<path style="fill:url(#SVGID_00000090991400875028592840000014902395343856166030_);" d="M439.3,293.15
				c-5.49,14.27-12.6,27.88-20.92,40.41c1.34-9.76,10.7-73.93,27.51-94.79C448.02,252.32,443.97,274.31,439.3,293.15z"/>
			<path class="st43" d="M422.92,326.42c-1.47,2.41-2.98,4.79-4.54,7.14c-2.42,3.65-4.95,7.21-7.58,10.67
				c-0.05-0.87-2.94-48.26,12.09-72.8C428.2,289.55,425.33,313.09,422.92,326.42z"/>
			<g class="st2">
				<path d="M445.89,238.77c-3.5,13.01-6.8,26.07-9.81,39.19c-1.51,6.56-2.95,13.14-4.23,19.74c-1.28,6.6-2.47,13.23-3.23,19.89
					l-1.17-0.14c0.86-6.71,2.16-13.33,3.54-19.93c1.38-6.6,2.92-13.16,4.52-19.7C438.71,264.73,442.2,251.72,445.89,238.77z"/>
			</g>
			<g class="st2">
				<path d="M422.89,271.43c-0.91,5.13-1.66,10.28-2.33,15.44c-0.66,5.16-1.24,10.34-1.65,15.52c-0.39,5.19-0.73,10.38-0.75,15.57
					c-0.02,5.19,0.13,10.39,0.81,15.51l-1.17,0.15c-0.58-5.22-0.64-10.46-0.52-15.68c0.12-5.22,0.55-10.42,1.05-15.61
					c0.5-5.19,1.19-10.36,1.94-15.51C421.04,281.68,421.89,276.54,422.89,271.43z"/>
			</g>
		</g>
		<g>
			<path class="st43" d="M97.3,356.13c0,0-23.39-14.26-32.17-41.97c24.45,3.12,46.26,43.3,46.26,43.3L97.3,356.13z"/>
			<g class="st2">
				<path d="M65.13,314.16c6.63,6.01,13.1,12.19,19.43,18.52c6.31,6.35,12.48,12.84,18.22,19.74l-0.92,0.74
					c-5.55-6.98-11.57-13.6-17.73-20.07C77.96,326.63,71.63,320.31,65.13,314.16z"/>
			</g>
			
				<linearGradient id="SVGID_00000159439070228248442280000007552062122707192481_" gradientUnits="userSpaceOnUse" x1="56.8244" y1="345.9001" x2="101.9275" y2="388.3502">
				<stop  offset="0" style="stop-color:#3E84FF"/>
				<stop  offset="1" style="stop-color:#7440FF"/>
			</linearGradient>
			<path style="fill:url(#SVGID_00000159439070228248442280000007552062122707192481_);" d="M124.25,379.5
				c-0.41,0.15-0.87,0.19-1.34,0.14c-5.18-4.46-10.92-9.93-16.79-16.43c-28.85-16.5-56.85,18.27-56.85,18.27
				s11.66-40.55,44.33-33.71h0.01C126.28,354.6,124.25,379.5,124.25,379.5z"/>
			<g class="st2">
				<path d="M49.27,381.47c3.99-6.32,8.83-12.12,14.41-17.14c5.58-4.94,12.15-9.11,19.58-10.69c3.69-0.78,7.55-0.85,11.27-0.13
					c3.71,0.72,7.3,2.13,10.53,4.11c0.83,0.46,1.58,1.04,2.37,1.56l1.17,0.8l1.1,0.89c0.73,0.6,1.47,1.18,2.19,1.8l1.04,0.98
					l0.97,1.05c1.26,1.44,2.32,3.07,3.12,4.82c0.8,1.77,1.36,3.6,1.48,5.63l-1.18,0c-0.08-1.71-0.58-3.53-1.31-5.17
					c-0.73-1.66-1.71-3.21-2.89-4.6l-0.92-1.02l-0.99-0.95c-0.69-0.61-1.42-1.19-2.12-1.79l-1.07-0.89l-1.14-0.79
					c-0.77-0.51-1.49-1.1-2.3-1.55c-3.13-1.97-6.6-3.38-10.21-4.14c-3.61-0.75-7.38-0.74-11.01-0.02
					c-7.31,1.44-13.88,5.48-19.5,10.33C58.26,369.48,53.34,375.2,49.27,381.47z"/>
			</g>
		</g>
	</g>
</g>
<g id="DESIGNED_BY_FREEPIK">
</g>
</svg>
